<?xml version="1.0" encoding="UTF-8"?><svg id="Capa_1" xmlns="http://www.w3.org/2000/svg" viewBox="0 0 271.199 95.275"><defs><style>.cls-1{fill:#fff;}.cls-2{fill:#518c1c;}.cls-2,.cls-3,.cls-4{fill-rule:evenodd;}.cls-3{fill:#619f2f;}.cls-4{fill:#72b341;}</style></defs><path class="cls-4" d="M152.758,65.53c4.581,2.624,9.884,4.126,15.532,4.126h31.347v-34.392h-31.347v11.196h20.152v12.001h-20.152c-3.219,0-6.263-.761-8.966-2.11l-.071.545-.528,1.435-.21.144-.113.21.175.228-.674.326-.622.592-.734.305-.621.454-.574-.057-.447.244-.26-.091-.186-.014.009.125-.105.259.188.588-.039,1.04-.377.933-.763.907-.051.029-.107.154-.247.479-.157.225-.05.12Z"/><path class="cls-4" d="M168.29,18.157h71.561c11.106,0,20.152,9.061,20.152,20.197s-9.046,20.197-20.152,20.197h-20.151v-29.425h-11.106v40.531h31.347c8.598,0,16.39-3.493,22.033-9.225.627-.627,1.254-1.254,1.791-1.881,4.658-5.464,7.434-12.539,7.434-20.242,0-17.375-14.062-31.347-31.348-31.347h-71.561c-2.186,0-4.321.226-6.382.654l.07.046.227.174.116.111.077.03.383.24.241.192.143.134.164.132.232.214.226.272.176.259.119.221.084.175.077.189.052.152.042.132.263.276.16.949.122.747-.083.545.027.072-.011,1.004-.158.718-.208.492-.109.418-.531.986-.104.08.108.663-.287,1.37-.074.14c1.551-.385,3.173-.59,4.841-.59"/><path class="cls-4" d="M71.472,29.836v39.82h11.195v-28.75h11.195c4.03,0,7.523,2.134,9.494,5.359l.269.522,6.001,11.703,5.732,11.165h11.479l-.052-.055-.416-.361-.502-.926-.354-.142-.634-.493-.053-.008-.24-.05-.25-.074-.218-.082-.218-.098-.256-.138-.218-.149-.074-.057-.137-.073-.158-.085-.452-.329-.448-.488-.311-.53-.004-.004-.031-.042-.138-.062-.179-.087-.093-.047-.126-.069-.131-.077-.138-.087-.199-.131-.52-.43-.484-.756-.101-.338-.045-.017-.11-.045-.203-.094-.271-.152-.281-.201-.275-.245-.25-.288-.088-.129-1.019-.51-.182-.096-.122-.068-.15-.09-.194-.132-.149-.119-.147-.087-.116-.073-.116-.079-.161-.118-.161-.122-.132-.106-.152-.128-.102-.094-.068-.065-.164-.131-.18-.17-.134-.143-.095-.108-.096-.119-.112-.146-.084-.116-.196-.287-.096-.149-.129-.229-.07-.156-.162-.204-.1-.146-.083-.128-.115-.131-.147-.191-.127-.195-.084-.146-.077-.145-.125-.264-.069-.153-.118-.33-.041-.191-.108-.096-.096-.089-.16-.16-.219-.237-.254-.382-.199-.413-.107-.378-.051-.258-.026-.217-.012-.157-.007-.165-.007-.101-.005-.156.002-.19.002-.023-.025-.035-.166-.312-.093-.224-.058-.159-.068-.208-.041-.179-.071-.232-.052-.276-.027-.207-.012-.17-.011-.303v-.181s.017-.255.017-.255l.046-.289-.01-.02-.014-.03-.073-.119-.091-.168-.076-.156-.07-.161-.083-.22-.062-.219-.032-.124-.056-.269-.041-.446.057-.624.027-.078-.052-.219-.038-.185-.017-.089-.021-.131-.017-.13-.013-.126-.016-.227-.002-.057-.012-.16-.008-.181.005-.232.017-.184.016-.144.032-.204.064-.283.126-.367.281-.547.13-.138-.015-.169-.091-.195-.102-.301-.075-.304-.05-.361-.005-.531.15-.666.24-.481-.088-.16-.171-.501-.067-.443-.016-.378.041-.414.091-.391.145-.389.271-.499.056-.061-.602-1.035.294-1.252.022-.087.017-.059.02-.171.039-.167.027-.121.058-.181.003-.015.104-.363.247-.504.191-.243.009-.115.038-.242.052-.232.014-.046-.014-.185v-.204l.007-.161.011-.139.025-.214.006-.04-.008-.027-.08-.431-.002-.433.033-.31.047-.245.053-.204.055-.169.049-.134.052-.13.084-.189.077-.144c-.306.054-.618.08-.93.08l-19.216.061v.065h-20.371ZM125.554,15.278c-.721-1.231-1.59-2.368-2.584-3.391-3.045-3.045-7.254-4.926-11.912-4.926h-39.587v11.195h39.587c1.971,0,3.314.896,4.03,1.627.627.627,1.702,2.075,1.702,4.15,0,1.346-.479,2.628-1.305,3.637l.035-.006.223-.023.168-.013.191-.003.185.005.259.022.221.042.078-.079.053-.057.136-.156.15-.147.05-.299.151-.508.32-.548.315-.352.268-.237.179-.136.14-.094.168-.104.089-.053.128-.071.138-.069.223-.1.168-.065.071-.023.036-.049.007-.008.091-.139.17-.221.208-.219.023-.02.145-.183.539-.499.234-.096.015-.041.084-.181-.02-.115-.031-.34.023-.551.179-.607.217-.415.147-.214.113-.158.22-.267.512-.46.285-.12.02-.146.389-.755.005-.005.023-.065.045-.15.053-.154.082-.205.081-.182.019-.039.067-.15.066-.135.101-.187.149-.232.222-.281.2-.192.101-.094.248-.186.195-.12.144-.08.028-.015.01-.046.269-.526.19-.258.029-.061.027-.053Z"/><path class="cls-4" d="M16.838,18.157h45.767V6.961H16.838C7.523,6.961,0,14.574,0,23.889v28.839c0,9.314,7.523,16.927,16.838,16.927h45.767v-11.195H16.838c-3.135,0-5.732-2.597-5.732-5.732v-11.822h40.304v-11.196H11.106v-5.821c0-3.135,2.597-5.732,5.732-5.732"/><path class="cls-1" d="M266.41,85.412v-.077c0-2.015-1.647-3.662-3.662-3.662h-5.503c-2.015,0-3.643,1.647-3.643,3.662v.077c0,.775.233,1.492.639,2.074.136.213.29.407.465.581.659.639,1.55,1.027,2.538,1.027h4.883c1.027,0,1.88.833,1.88,1.86s-.853,1.86-1.88,1.86h-4.244c-1.027,0-1.86-.833-1.86-1.86h-2.422c0,2.364,1.918,4.282,4.282,4.282h4.244c2.364,0,4.282-1.918,4.282-4.282,0-1.027-.368-1.977-.969-2.713-.058-.058-.097-.116-.155-.174-.775-.853-1.899-1.395-3.158-1.395h-4.883c-.678,0-1.24-.562-1.24-1.24v-.078c0-.678.562-1.24,1.24-1.24h5.503c.678,0,1.24.562,1.24,1.24v.078l2.422-.02ZM249.688,81.672l-1.24,2.422-2.965,5.813-2.965-5.813-1.24-2.422h-2.713l1.24,2.422,5.678,11.142,5.677-11.142,1.24-2.422h-2.713ZM227.521,84.094h9.901v-2.422h-9.901c-2.016,0-3.643,1.647-3.643,3.662v6.239c0,2.016,1.628,3.662,3.643,3.662h9.901v-2.422h-9.901c-.678,0-1.24-.562-1.24-1.24v-2.558h8.72v-2.422h-8.72v-1.259c0-.678.562-1.24,1.24-1.24ZM210.759,84.094h4.36c2.403,0,4.36,1.96,4.36,4.37s-1.957,4.37-4.36,4.37h-4.36v-8.739ZM208.357,81.672v13.564h6.782c1.86,0,3.546-.756,4.767-1.996.136-.135.271-.271.387-.407,1.008-1.182,1.608-2.713,1.608-4.379,0-3.759-3.042-6.782-6.782-6.782h-6.763ZM196.517,84.094h9.901v-2.422h-9.901c-2.016,0-3.643,1.647-3.643,3.662v6.239c0,2.016,1.628,3.662,3.643,3.662h9.901v-2.422h-9.901c-.678,0-1.24-.562-1.24-1.24v-2.558h8.72v-2.422h-8.72v-1.259c0-.678.562-1.24,1.24-1.24ZM188.495,83.532l-4.36,3.352-4.36-3.352-2.422-1.86v13.564h2.422v-8.642l2.383,1.822,1.976,1.531,1.977-1.531,2.383-1.822v8.642h2.422v-13.564l-2.422,1.86ZM174.951,92.814l-5.677-11.142-5.677,11.142-1.24,2.422h2.713l1.24-2.422,2.964-5.813,2.965,5.813,1.24,2.422h2.713l-1.24-2.422ZM154.411,84.094h6.782v-2.422h-6.782c-3.74,0-6.782,3.042-6.782,6.782s3.042,6.782,6.782,6.782h6.782v-7.441h-6.782v2.422h4.36v2.596h-4.36c-2.403,0-4.36-1.957-4.36-4.36s1.957-4.36,4.36-4.36ZM136.255,85.412v-.077c0-2.015-1.647-3.662-3.662-3.662h-5.503c-2.015,0-3.643,1.647-3.643,3.662v.077c0,.775.233,1.492.639,2.074.136.213.291.407.465.581.659.639,1.55,1.027,2.538,1.027h4.883c1.027,0,1.88.833,1.88,1.86s-.853,1.86-1.88,1.86h-4.244c-1.027,0-1.86-.833-1.86-1.86h-2.422c0,2.364,1.918,4.282,4.282,4.282h4.244c2.364,0,4.282-1.918,4.282-4.282,0-1.027-.368-1.977-.969-2.713-.058-.058-.097-.116-.155-.174-.775-.853-1.899-1.395-3.158-1.395h-4.883c-.678,0-1.24-.562-1.24-1.24v-.078c0-.678.562-1.24,1.24-1.24h5.503c.678,0,1.24.562,1.24,1.24v.078l2.422-.02ZM115.173,92.814c-2.403,0-4.36-1.957-4.36-4.36s1.957-4.36,4.36-4.36,4.36,1.957,4.36,4.36-1.957,4.36-4.36,4.36ZM115.173,81.672c-3.74,0-6.782,3.042-6.782,6.782s3.042,6.782,6.782,6.782,6.782-3.042,6.782-6.782-3.042-6.782-6.782-6.782ZM106.918,95.236v-13.564h-2.422v13.564h2.422ZM92.753,86.613v-2.519h6.143c.426,0,.717.194.872.352.136.135.368.449.368.898,0,.488-.291.937-.736,1.134-.155.078-.329.116-.504.116l-6.143.02ZM99.361,88.977h0c.368-.038.717-.135,1.047-.29,1.259-.581,2.131-1.86,2.131-3.343,0-1.017-.407-1.928-1.066-2.606-.659-.659-1.569-1.066-2.577-1.066h-8.565v13.564h2.422v-6.22h2.422c.872,0,1.628.462,2.054,1.159l.058.113,1.298,2.532,1.24,2.416h2.713l-1.24-2.416-1.938-3.843ZM69.075,84.094h9.901v-2.422h-9.901c-2.015,0-3.643,1.647-3.643,3.662v6.239c0,2.016,1.628,3.662,3.643,3.662h9.901v-2.422h-9.901c-.678,0-1.24-.562-1.24-1.24v-2.558h8.72v-2.422h-8.72v-1.259c0-.678.562-1.24,1.24-1.24ZM53.67,86.632v-2.5h6.143c.426,0,.717.194.872.349.135.136.368.446.368.891,0,.485-.291.93-.736,1.124-.155.077-.329.116-.504.116l-6.143.019ZM60.278,88.977h0c.368-.038.717-.135,1.047-.29,1.259-.581,2.131-1.86,2.131-3.333,0-1.007-.407-1.918-1.066-2.577-.659-.659-1.57-1.066-2.577-1.066h-8.565v13.564h2.422v-6.24h2.422c.872,0,1.628.465,2.054,1.163l.058.116,1.298,2.538,1.24,2.422h2.713l-1.24-2.422-1.938-3.876ZM35.766,81.672v2.422h5.561v11.142h2.422v-11.142h5.561v-2.422h-13.544ZM31.406,81.672v8.629l-8.72-6.714-2.422-1.857v13.506h2.422v-8.571l8.72,6.714,2.422,1.857v-13.544l-2.422-.02ZM8.425,84.094h9.901v-2.422h-9.901c-2.015,0-3.643,1.647-3.643,3.662v6.239c0,2.016,1.628,3.662,3.643,3.662h9.901v-2.422h-9.901c-.678,0-1.24-.562-1.24-1.24v-2.558h8.72v-2.422H7.185v-1.259c0-.678.562-1.24,1.24-1.24Z"/><polygon class="cls-1" points="105.934 80.454 108.802 76.617 106.089 76.617 104.558 80.454 105.934 80.454"/><path class="cls-4" d="M152.222,74.757v.006h.019v.005h.028v.006h.032v.005h.01v-.005h.004v.005h.014v.005h.005v.005h.009v.011h.01v.005h.004v.005h.005v.005h.005v.006h.014v.005h.005v.006h.028v.005h.005v.005h.004v.005h.01v.006h.018v.005h.005v.005h.005v.006h.005v.005h-.005v.005h.005v.022h.005v.011h.009v.006h.004v.005h.005v.006h.005v.006h.009v.005h.005v.006h.005v.006h.005v.005h.005v.005h.014v.011h.009v.005h.005v.006h.004v.005h.005v.006h.004v.005h.005v.005h.005v.011h.009v.005h.005v.005h.004v.005h.005v.005h.005v.006h.014v-.006h.004v.011h.005v.005h.009v.022h.005v.005h.009v.005h.004v-.005h.009v.005h.014v.005h.009v.006h.004v.005h.005v.005h.005v.011h.005v.016h.004v.011h.004v.011h.005v.022h.004v.005h.005v.006h.004v.006h.004v.016h.005v.005h.009v.005h.005v.005h.005v.005h.004v.005h.01v.038h.005v.011h.005v.027h-.005v.033h.005v.011h.005v.016h.005v.005h-.005v.017h-.005v.011h-.005v.016h.005v.005h.005v.011h-.005v.005h-.009v.005h-.004v.006h-.005v.005h-.004v.011h-.005v.005h-.023v.005h-.01v.006h-.074v-.006h-.037v-.011h-.014v-.006h-.009v-.005h-.005v-.005h-.009v-.006h-.028v-.005h-.037v-.005h-.009v-.005h-.018v-.005s-.009-.001-.009-.001v.006h-.005v-.006h-.009v-.005h-.005v-.006h-.018v-.005h-.005v-.005h-.009v-.006h-.009v-.005h-.005v-.005h-.004v-.006h-.005v-.011h-.005v-.005h-.005v-.011h-.005v-.006h-.004v-.005h-.004v-.011h-.005v-.022h-.005v-.027h-.005v-.023h-.004v-.005h-.005v-.033h-.005v-.005h.005v-.027h-.005v-.011h-.004v-.016h-.006s.001-.005.001-.005h-.005v-.011h-.004v-.01h-.005s0-.034,0-.034h-.005v-.005h-.004v-.022h-.005v-.022h-.005v-.022h-.005v-.011h-.005v-.005h-.004v-.005h-.005v-.017h-.005v-.005h-.005v-.006h-.004v-.011h-.004v-.011h-.005v-.022h-.005v-.006h-.005v-.016h-.005v-.011h-.004v-.005h-.005v-.017h-.004v-.005h-.005v-.005h-.004v-.022h-.005v-.027h-.004v-.017h-.005v-.011h.005v-.011h-.005v-.033h.005v-.006h.009ZM150.709,73.979l-.018.041-.144-.118-.064-.098.026-.02.089.011.085.099.027.084ZM152.111,75.294v.005h.004v.017h-.004v.011h-.005v.005h-.005v.006h-.005v.006h-.005v.005h-.018v-.017h.005v-.005h.005v-.005h.004v-.005h.004v-.006h.005v-.011h.005v-.005h.009ZM154.505,57.949l-.136.066-.196-.015-.024-.026.057-.073.106-.042.118-.009.076.098ZM154.731,57.862l-.064.035-.186-.065-.151-.122.115-.055.15.031.066.039.071.136ZM127.672,45.67h0c.41-1.329,1.832-2.081,3.16-1.672l2.685.827.827-2.685c.41-1.329,1.832-2.081,3.16-1.672,1.329.409,2.081,1.831,1.672,3.16l-.828,2.685,2.685.827c1.329.409,2.081,1.831,1.672,3.16-.409,1.329-1.831,2.081-3.16,1.671l-2.685-.827-.827,2.685c-.409,1.329-1.831,2.081-3.16,1.672-1.329-.409-2.081-1.831-1.672-3.16l.827-2.685-2.685-.827c-1.329-.409-2.081-1.831-1.672-3.16ZM140.012,21.876c.314.113.663-.052.776-.366l1.209-3.363c.113-.314-.052-.663-.366-.776l-3.363-1.209c-.314-.113-.663.052-.776.366l-1.209,3.363c-.113.314.052.664.366.776l3.363,1.209ZM147.136,19.995l-1.209,3.363c-.113.314.052.663.366.776l3.363,1.209c.314.113.663-.052.776-.366l1.209-3.363c.113-.314-.052-.663-.366-.776l-3.363-1.209c-.314-.113-.664.052-.776.366ZM146.567,18.787c.314.113.663-.052.776-.366l1.208-3.363c.113-.314-.052-.663-.366-.776l-3.363-1.209c-.314-.113-.664.052-.776.366l-1.209,3.363c-.113.314.052.663.366.776l3.363,1.209ZM144.72,23.927l-3.363-1.209c-.314-.113-.663.052-.776.366l-1.209,3.363c-.113.314.052.663.366.776l3.363,1.209c.314.113.663-.052.776-.366l1.209-3.363c.113-.314-.052-.663-.366-.776ZM150.046,65.121l-.021.118-.087.486v.317s.068.465.068.465l.028.484-.058.423-.112.275-.051.127-.117-.025-.01.046.111.396-.017.112-.104.205.006.175-.091.405-.035.265.023.734-.052.139.014.063.09.078.042.01.046.127.071.124.052.298.062.16.162.206.087.161-.014.371.019.063.147-.086.153.085.052.065-.041.082-.112.067.064.115.098-.03.087.17.066.023.016-.079.122.109.213.058.14.101.109.375-.039.132-.181.327-.02.199-.048.048-.174.002-.197-.049-.315.072-.013.003.037.256.378.193.131.013.106-.021.053-.039.135-.2.077-.039.165.018.061.069.072.461-.02.083-.112.08.653.332v.004h-.005v.006h-.009v.022h.004v.038h.005v.028h.009v.027h.005v.016h.005v.022h.004v.011h.005v.016h.005v.011h.004v.006h.005v.022h.004v.005h.004v.011h.005v.022h.005v.038h.005v.011h.005v.017h.004v.022h-.004v.022h-.005v.005h-.005v.005h-.005v.006h-.005v.005h-.004v.005h-.004v-.005h-.014v-.005h-.009v-.006h-.009v-.005h-.018v-.005h-.005v-.005h-.004v-.011h-.005v-.005h-.005v-.016h-.004v-.017h.004v-.022h-.004v-.022h-.005v-.006h-.009v.027h-.005v.016h.005v.017h-.009v.011h-.004v.005h-.005v.017h-.005v.022h.005v.006h.005v.016h.004v.033h-.004v.005h.004v.006h-.004v.01h-.005v.005h-.005v.006h-.005v.005h-.004v.005h-.005v.006h-.004v.01h-.005v.006h-.005v.005h-.004v.006h-.005v.005h-.014v.005h-.009v-.005h-.009v-.005h-.005v-.006h-.009v.038h.009v.006h.005v.011h.009v.011h-.005v.005h-.004v.006h-.005v.005h-.005v.006h-.005v.011h-.005v.011h-.005v.006h-.005v.005h-.005v.006h-.004v.005h-.014v.016h.009v.006h.005v.011h-.005v.005h.005v.011h.004v.017h.005v.022h.005v.006h.009v.005h.009v.006h.005v.011h.004v.011h.005v.022h-.005v.005h-.004v.027h-.01v.011h-.005v.005h-.009v.006h-.005v.006h-.005v.06l-.443.047.009.022-.086-.016-.098-.017-.1-.01-.099.016-.098.012-.101-.004-.1.007-.091-.003-.095-.005-.094.033-.155.109-.051.029-.05.03-.051.027-.056.016-.058.01-.055.018-.055.021-.056.016-.057.008-.057.01-.054.021-.057.014-.057.014-.053.022-.053.023-.055.018-.054.022-.116.01-.058.003-.058.002-.057.006-.057.015-.056.016-.055.018-.096.064-.049.03-.049.031-.052.026-.055.02-.057.01-.058.003-.058.006-.058.009-.058.003-.032-.004-.026-.003-.057-.01-.058-.006-.058-.007-.058-.006-.056-.016-.111-.035-.056-.016-.054-.021-.053-.022-.034-.015-.019-.008-.053-.025-.051-.026-.052-.026-.052-.025-.052-.026-.05-.029-.095-.066-.082-.081-.084-.08-.082-.082-.066-.093-.054-.102-.026-.052-.025-.051-.07-.199-.052-.104-.071-.094-.114-.136-.074-.091-.016-.028-.043-.074-.068-.096-.082-.086-.088-.079-.047-.038-.049-.034-.052-.029-.055-.021-.058-.014-.06-.009-.059-.007h-.059s-.06.003-.06.003l-.06.005-.059.005-.059.006-.059.007-.059.007-.059.008-.059.009-.058.011-.058.017-.057.022-.057.019-.057.01-.035-.002h-.023s-.057-.015-.057-.015l-.058-.02-.057-.022-.054-.022-.054-.026-.052-.029-.051-.029-.051-.03-.051-.031-.05-.032-.048-.034-.048-.034-.048-.035-.092-.075-.086-.081-.07-.094-.051-.106-.039-.11-.038-.111-.053-.106-.116-.132-.091-.077-.044-.039-.044-.039-.045-.038-.045-.038-.044-.04-.044-.039-.047-.035-.052-.027-.052-.019h-.003s-.058-.017-.058-.017l-.058-.014-.057-.015-.058-.015-.116-.025-.058-.006h-.06s-.06.002-.06.002l-.059-.002-.059-.009-.06-.011-.058-.017-.133-.108-.066-.1-.053-.105-.061-.1-.04-.048-.045-.043-.102-.035-.059.011-.061.019-.058.02-.054.029-.107.044-.056-.013-.056-.027-.056-.022-.056-.021-.056-.02-.056-.018-.057-.015-.058-.012-.059-.01-.059-.007-.059-.005-.06-.004-.061-.003h-.06l-.059.006-.056.014-.054.022-.052.028-.052.031-.052.029-.053.027-.052.029-.053.027-.054.023-.057.016-.059.013-.06.006h-.059s-.058-.007-.058-.007l-.058-.015-.057-.02-.054-.025-.052-.028-.05-.032-.094-.072-.084-.082-.077-.09-.068-.096-.058-.102-.037-.069-.019-.035-.035-.035-.04-.038-.043-.042-.092-.071-.056-.025-.059-.012-.056.007-.054.027-.053.029-.055.023-.054.023-.055.023-.055.026-.055.023-.056.008-.059-.008-.058-.018-.056-.022-.055-.025-.092-.072-.06-.102-.064-.099-.061-.101-.049-.107-.007-.115.005-.118.008-.117.027-.114.033-.113.032-.112.044-.11.023-.112-.021-.118-.061-.098-.046-.041-.049-.033-.056-.018-.06-.008-.059-.008-.06-.004-.058.008-.057.014-.057.017-.057.019-.056.02-.056.02-.055.024-.054.027-.055.024-.056.018-.058.008h-.059s-.06-.004-.06-.004h-.06s-.059-.002-.059-.002h-.059s-.06,0-.06,0l-.059.004-.059.007-.058.012-.058.015-.057.017-.056.019-.055.022-.055.021-.056.018-.056.018-.057.018-.057.015-.058.014-.058.013-.059.009-.059.005h-.059s-.059,0-.059,0l-.06-.002-.06-.003h-.06s-.06.002-.06.002l-.06.002-.058-.008-.111-.043-.056-.021-.057-.015-.058-.013-.058-.013-.057-.016-.056-.018-.056-.02-.055-.023-.054-.025-.053-.028-.05-.031-.083-.082-.07-.096-.062-.1-.05-.107-.028-.113-.012-.055-.013-.06-.042-.109-.042-.11-.02-.115-.031-.113-.043-.109-.024-.054-.023-.054-.052-.105-.047-.075-.016-.024-.073-.092-.079-.088-.088-.077-.051-.031-.055-.024-.057-.018-.057-.012-.059-.005h-.06s-.059.005-.059.005l-.061.006-.059.012-.096.061-.078.092-.069.095-.065.098-.073.092-.08.086-.041.042-.041.042-.086.081-.084.083-.079.088-.078.089-.086.079-.048.036-.05.032-.053.027-.056.018-.061.01h-.06l-.055-.014-.051-.031-.047-.039-.085-.083-.072-.093-.058-.103-.048-.107-.035-.112-.015-.116-.012-.117-.029-.114-.043-.11-.064-.098-.088-.078-.054-.024-.056-.022-.048-.033-.087-.08-.048-.034-.05-.033-.051-.03-.054-.024-.056-.015-.058-.01-.06-.008-.059-.01-.059-.01-.058-.01-.058-.012-.057-.016-.055-.023-.054-.024-.056-.02-.058-.014-.059-.009-.059-.005-.058.002-.058.012-.058.016-.056.019-.056.021-.057.012-.059.003h-.06s-.06-.008-.06-.008l-.058-.011-.056-.016-.027-.011-.028-.011-.054-.024-.055-.024-.055-.022-.057-.018-.058-.017-.056-.019-.052-.026-.087-.078-.082-.086-.046-.039-.01-.009-.08-.069-.053-.099-.013-.103-.002-.016-.015-.117.012-.116.024-.115-.003-.117-.006-.058-.006-.059-.004-.119-.019-.114-.103-.144-.091-.076-.051-.029-.054-.024-.056-.023-.056-.022-.055-.022-.055-.023-.055-.022-.055-.021-.056-.02-.056-.018-.011-.004-.045-.013-.113-.033-.057-.015-.057-.016-.057-.015-.057-.016-.057-.016-.057-.015-.057-.016-.058-.014-.058-.014-.057-.016-.054-.021-.092-.071-.075-.094-.06-.101-.053-.105-.101-.143-.089-.079-.046-.039-.047-.037-.05-.03-.054-.018-.06.002-.061.002-.058-.012-.056-.02-.018-.005-.039-.012-.058-.008-.06-.003-.059-.002h-.059s-.059.002-.059.002l-.059.002h-.059s-.06-.005-.06-.005l-.059-.005-.059-.008-.057-.012-.057-.017-.037-.014-.019-.007-.054-.024-.052-.028-.049-.033-.047-.036-.047-.036-.048-.034-.048-.035-.049-.032-.052-.028-.053-.025-.052-.027-.053-.027-.052-.028-.094-.069-.081-.088-.059-.1-.024-.116-.038-.094-.006-.014-.061-.101-.114-.134-.086-.081-.086-.081-.07-.094-.111-.136-.085-.082-.085-.082-.088-.079-.047-.036-.048-.034-.05-.031-.052-.026-.056-.018-.058-.014-.098-.027-.072-.025-.055-.023-.054-.024-.053-.025-.053-.026-.052-.026-.052-.029-.051-.029-.008-.005-.042-.026-.051-.032-.05-.033-.09-.075-.022-.034-.04-.063-.007-.024-.027-.091-.008-.115.007-.118-.004-.117-.032-.112-.043-.11-.041-.11-.059-.1-.081-.087-.086-.079-.092-.075-.046-.036-.047-.036-.047-.035-.048-.034-.049-.033-.05-.031-.052-.029-.053-.026-.054-.024-.054-.023-.054-.024-.053-.026-.052-.027-.052-.026-.053-.025-.055-.021-.056-.018-.057-.017-.056-.018-.055-.021-.055-.021-.055-.022-.054-.025-.051-.029-.048-.034-.044-.04-.039-.045-.033-.048-.022-.053-.014-.058-.01-.058-.009-.058-.005-.058-.005-.058-.006-.058-.006-.058-.005-.059v-.058s.001-.058.001-.058l.004-.059.004-.058.003-.059.002-.034v-.003s.002-.022.002-.022l-.003-.058-.014-.056-.02-.056-.025-.054-.01-.017-.02-.033-.037-.047-.041-.042-.046-.036-.051-.029-.055-.024-.055-.021-.056-.021-.057-.016-.058-.009-.059-.003-.06.002-.059.007-.057.012-.055.02-.053.027-.051.031-.05.033-.047.034-.044.039-.045.038-.049.033-.052.027-.053.025-.053.025-.066-.033-.053-.026-.052-.026-.053-.027-.052-.026-.053-.027-.052-.026-.034-.017-.019-.01-.052-.026-.053-.027-.052-.027-.052-.027-.052-.027-.052-.029-.051-.031-.048-.033-.046-.036-.044-.039-.044-.04-.045-.038-.048-.034-.051-.03-.052-.028-.052-.027-.052-.028-.051-.03-.049-.031-.048-.034-.048-.034-.048-.035-.047-.035-.047-.035-.04-.032-.006-.004-.046-.037-.048-.04-.042-.036-.044-.04-.042-.041-.042-.041-.043-.04-.044-.039-.046-.037-.047-.035-.046-.037-.043-.04-.03-.032-.01-.011-.039-.044-.037-.046-.036-.046-.036-.047-.034-.048-.033-.048-.033-.049-.033-.049-.033-.048-.033-.049-.032-.049-.029-.051-.023-.053-.02-.056-.013-.043-.005-.014-.019-.055-.021-.055-.023-.055-.031-.049-.039-.044-.041-.042-.026-.028-.014-.015-.039-.045-.038-.045-.026-.03-.012-.014-.037-.046-.036-.046-.033-.048-.032-.049-.032-.049-.033-.049-.032-.049-.033-.048-.035-.048-.037-.045-.009-.01-.03-.033-.04-.044-.039-.045-.036-.046-.032-.049-.011-.02-.018-.031-.027-.051-.026-.054-.025-.053-.026-.055-.025-.055-.02-.056-.012-.056.004-.055.02-.056.025-.055.021-.055.024-.056.02-.056.005-.055-.011-.056-.02-.056-.025-.055-.026-.053-.028-.051-.032-.05-.034-.048-.035-.047-.036-.047-.037-.046-.039-.044-.04-.042-.043-.039-.045-.038-.046-.036-.048-.035-.048-.033-.05-.031-.052-.029-.051-.028-.05-.031-.048-.033-.047-.035-.047-.036-.046-.037-.044-.039-.043-.04-.042-.042-.043-.043-.04-.044-.037-.056-.021-.042-.016-.055-.011-.056-.007-.058-.004-.059-.003-.06-.002-.06-.003-.059-.004-.058-.002-.059v-.059s.003-.036.003-.036v-.022s.009-.058.009-.058l.01-.058.011-.058.011-.058.011-.057.011-.058.011-.057.01-.058.009-.058.01-.059.004-.027.005-.031.006-.058v-.058l-.007-.057-.014-.057-.02-.056-.024-.054-.026-.052-.03-.051-.033-.049-.035-.047-.038-.044-.043-.04-.045-.038-.045-.038-.047-.036-.048-.036-.042-.039-.033-.047-.027-.051-.023-.055-.02-.055-.018-.056-.003-.015-.009-.042-.01-.058-.013-.057-.018-.056-.02-.055-.017-.056-.011-.057-.007-.058-.004-.059-.003-.059-.002-.059-.002-.059v-.059s.004-.058.004-.058l.009-.057.015-.057.023-.056.03-.049.041-.039.051-.032.05-.032.045-.037.01-.01.034-.033.037-.046.021-.051.005-.058-.007-.061-.016-.057-.023-.053-.029-.051-.031-.051-.031-.05-.031-.049-.034-.048-.034-.048-.031-.049-.026-.052-.021-.054-.02-.056-.019-.053v-.002s-.019-.056-.019-.056l-.017-.057-.019-.056-.023-.053-.031-.049-.037-.046-.037-.047-.031-.05-.027-.052-.025-.053-.026-.052-.035-.064-.023-.038-.031-.05-.03-.05-.028-.051-.026-.053-.023-.053-.021-.055-.016-.056-.015-.058-.012-.059-.005-.058.005-.057.019-.054.028-.052.029-.053.022-.054.013-.057.006-.058.003-.059.002-.059.002-.058.003-.059v-.059s.001-.058.001-.058l-.004-.058-.007-.058-.01-.058-.011-.058-.013-.057-.014-.057-.015-.056-.018-.056-.019-.056-.019-.055-.016-.056-.014-.057-.013-.057-.012-.058-.012-.057-.011-.058-.009-.058-.008-.058-.006-.058-.005-.058-.003-.058-.003-.059-.003-.059-.004-.058-.004-.059-.002-.046v-.013s0-.058,0-.058l.006-.058.007-.059.009-.06.013-.058.019-.054.026-.05.039-.041.048-.037.049-.035.046-.038.047-.036.047-.036.045-.037.04-.041.037-.045.035-.048.033-.049.029-.051.025-.053.018-.054.012-.057.008-.063.005-.055.007-.059.009-.058.009-.058.009-.058.008-.057.008-.058.008-.058.008-.058.008-.058.007-.058.006-.058.007-.059.007-.059.005-.059v-.058s-.005-.057-.005-.057l-.017-.055-.025-.055-.024-.053-.017-.056-.009-.057-.005-.058-.003-.059-.003-.059-.005-.058-.008-.058-.008-.058-.005-.058v-.059s.005-.06.005-.06l.003-.059-.005-.057-.017-.055-.026-.052-.031-.051-.032-.05-.037-.046-.04-.044-.036-.046-.024-.052-.019-.056-.014-.059-.008-.059v-.057s.012-.057.012-.057l.027-.055.038-.047.046-.032.058-.02.06-.008.056.005.056.018.055.025.052.026.05.029.05.031.051.028.053.028.053.028.054.025.054.017.056.003.062-.015.052-.031.031-.043.02-.055.011-.061.005-.061v-.058s-.007-.059-.007-.059l-.009-.056-.01-.058-.011-.058-.01-.058-.009-.058-.012-.058-.01-.058-.005-.058v-.058s.005-.058.005-.058l.007-.058.006-.058.004-.058.005-.058.007-.058.01-.058.015-.057.016-.056.012-.057.007-.058.005-.059.002-.059-.003-.058-.01-.057-.018-.055-.024-.054-.028-.052-.029-.052-.029-.052-.031-.051-.035-.047-.041-.04-.048-.031-.053-.026-.053-.026-.052-.026-.053-.026-.052-.025-.051-.027-.052-.028-.05-.029-.05-.03-.048-.034-.045-.037-.04-.042-.038-.045-.035-.048-.028-.051-.018-.054-.01-.068-.002-.05.006-.058.013-.058.021-.057.028-.051.038-.042.048-.035.049-.034.042-.04.039-.044.038-.045.039-.043.042-.041.042-.04.039-.043.035-.047.033-.048.034-.047.036-.046.037-.045.037-.045.037-.045.037-.045.038-.044.037-.045.037-.046.035-.047.033-.049.031-.049.03-.05.03-.05.03-.05.032-.049.034-.049.033-.048.031-.05.027-.052.02-.054.013-.058.006-.058.002-.058-.002-.059-.005-.059-.007-.058-.007-.058-.008-.058-.008-.059-.01-.058-.014-.056-.019-.055-.026-.052-.03-.048-.034-.05-.033-.048-.034-.048-.036-.046-.036-.046-.034-.048-.029-.051-.026-.053-.026-.053-.03-.05-.038-.043-.049-.035-.046-.037-.034-.046-.029-.05-.097.012-.104.014-.101.012-.076-.009-.048-.033-.029-.049.021-.091.012-.05.012-.05.012-.05.014-.05.014-.049.013-.05.012-.05.011-.05.01-.05.007-.051.004-.052.006-.051.006-.024.006-.026.016-.049.017-.048.017-.049.013-.051.011-.052.014-.05.022-.044.031-.04.036-.036.039-.035.04-.034.053-.048.043-.041.037-.035.039-.034.04-.032.043-.028.045-.026.045-.025.043-.027.041-.031.039-.035.036-.038.03-.041.024-.045.022-.048.017-.05.01-.05.002-.05-.007-.052-.014-.051-.016-.049-.02-.048-.024-.046-.024-.046-.022-.047-.021-.048-.016-.049-.011-.05-.008-.051-.003-.052.004-.051.008-.051.012-.051.015-.049.018-.048.02-.047.022-.047.022-.047.022-.047.02-.047.021-.048.021-.048.02-.048.016-.049.011-.049.002-.05-.009-.052-.016-.05-.02-.048-.03-.044-.032-.043-.024-.044-.009-.048-.004-.051v-.051l.002-.052.004-.052.005-.052.007-.052.007-.051v-.007s.009-.044.009-.044l.012-.05.014-.05.014-.05.013-.05.009-.051.006-.051.003-.052v-.052l-.003-.052-.005-.051-.009-.051-.012-.049-.014-.05-.016-.049-.015-.049-.014-.05-.016-.05-.017-.049-.015-.05-.009-.05v-.05s.005-.051.005-.051l.01-.051.013-.051.016-.05.018-.048.02-.049.022-.049.012-.023.013-.024.029-.043.033-.035.045-.019.054-.004h.053s.051.004.051.004l.051.006.051.009.05.01.05.013.05.013.05.011.05.004h.051s.052-.006.052-.006l.051-.01.049-.013.048-.018.047-.022.044-.027.04-.031.037-.035.035-.038.033-.04.033-.04.032-.04.03-.043.028-.043.029-.043.032-.04.034-.039.036-.039.037-.036.04-.031.043-.025.048-.015.051-.009.052-.005.052-.005.051-.004h.051s.051,0,.051,0l.05.005.051.009.05.012.049.013.05.013.049.016.048.018.045.026.042.033.043.026.048.01h.006s.045.005.045.005l.051.002h.052s.052-.005.052-.005l.051-.005.051-.007.05-.009.05-.012.05-.012.05-.013.05-.013.05-.012.05-.011.05-.011.05-.01.05-.012.049-.013.049-.015.048-.017.008-.003.04-.016.048-.018.048-.017.054-.02.041-.017.047-.021.047-.021.046-.022.047-.022.046-.023.045-.025.043-.026.043-.03.042-.03.041-.03.041-.031.04-.033.037-.035.036-.036.035-.038.033-.039.031-.04.027-.044.027-.043.031-.041.035-.037.037-.036.035-.036.035-.038.035-.038.035-.038.035-.038.034-.039.034-.039.037-.036.04-.031.044-.026.014-.008.031-.016.046-.023.046-.023.045-.024.045-.025.045-.024.045-.024.045-.024.045-.025.045-.025.045-.024.045-.023.044-.027.043-.028.043-.029.043-.029.041-.031.039-.033.035-.036.032-.041.027-.045.037-.095v-.033s0-.017,0-.017l-.01-.052-.01-.052-.005-.052-.008-.052-.019-.047-.029-.043-.033-.041-.029-.043-.019-.047-.014-.05-.011-.051-.008-.052-.004-.052-.002-.052v-.053s.004-.053.004-.053l.009-.051.014-.048.025-.043.035-.039.04-.035.039-.034.04-.031.043-.029.044-.027.043-.026.011-.007.033-.02.045-.025.046-.023.047-.021.047-.021.048-.019.048-.016.049-.011.05-.006.051-.002h.103s.051-.005.051-.005l.051-.006.051-.006.05-.007.051-.008.05-.009.05-.011.049-.013.048-.016.048-.02.046-.023.044-.026.042-.029.041-.031.039-.033.038-.035.035-.037.034-.04.03-.043.024-.045.014-.047v-.052s-.003-.053-.003-.053v-.052s.012-.049.012-.049l.018-.048.022-.047.024-.046.026-.044.03-.042.032-.041.031-.041.028-.043.028-.044.028-.043.031-.041.035-.037.038-.034.04-.033.039-.034.035-.037.031-.041.03-.043.03-.043.032-.04.036-.034.047-.019.052-.011.049-.016.048-.018.048-.016.049-.013.05-.008.051-.006.05-.007.05-.008.022-.004.029-.006.049-.015.049-.018.047-.021.042-.028.035-.035.033-.04.03-.043.027-.045.024-.046.019-.047.006-.023.007-.027.013-.051.017-.048.023-.046.026-.044.028-.044.027-.043.025-.045.021-.047.019-.048.017-.049.017-.049.015-.049.015-.049.014-.05.012-.05.012-.051.014-.049.018-.048.022-.047.024-.046.024-.046.023-.046.021-.047.02-.047.02-.047.005-.012.003-.008.029-.075.017-.048.016-.049.018-.057.012-.041.015-.049.014-.05.014-.05.013-.05.012-.05.011-.051.01-.051.009-.05.009-.051.007-.052.004-.051v-.051s-.009-.051-.009-.051l-.012-.05-.014-.05-.015-.049-.019-.048-.019-.048-.017-.049-.012-.05-.009-.052-.004-.052.002-.051.014-.048.024-.046.03-.044.03-.042.03-.043.033-.04.037-.034.045-.019.051-.01.049-.016.045-.024.045-.026.045-.022.049-.014.016-.003.035-.005.051-.005.051-.007.049-.012.047-.019.046-.024.043-.027.039-.034.037-.035.04-.03.046-.022.048-.018.048-.02.044-.024.04-.03.038-.035.043-.047.027-.029.031-.041.03-.041.029-.043.027-.044.026-.044.025-.045.023-.046.022-.047.02-.047.018-.048.017-.049.014-.05.012-.051.01-.051.007-.051.005-.051.002-.052v-.052s0-.051,0-.051v-.007s-.003-.045-.003-.045l-.007-.053-.007-.053-.003-.051.007-.048.022-.043.035-.038.04-.036.036-.039.03-.042.028-.044.026-.044.023-.047.018-.048.013-.05.01-.05.009-.051.01-.051.013-.05.016-.049.002-.004.017-.044.018-.048.016-.049.014-.05.013-.05.014-.049.017-.049.019-.048.019-.048.021-.047.021-.047.021-.046.022-.047.021-.048.021-.048.023-.047.024-.045.027-.042.031-.039.021-.02.015-.014.041-.031.045-.027.045-.025.045-.023.048-.018.049-.015.049-.014.048-.016.05-.015.05-.015.047-.019.041-.027.034-.035.031-.04.029-.044.029-.044.03-.043.032-.04.034-.039.034-.038.035-.038.034-.037.035-.038.034-.042.032-.04.032-.04.031-.04.031-.041.029-.042.029-.042.029-.043.029-.043.029-.043.028-.043.028-.043.027-.043.026-.044.025-.044.024-.045.02-.047.009-.051.007-.052.012-.05.023-.045.03-.041.033-.04.031-.041.03-.042.03-.041.029-.042.026-.044.024-.045.023-.046.022-.046.022-.047.022-.046.023-.046.025-.045.027-.044.027-.044.027-.044.027-.044.028-.043.031-.041.032-.041.034-.039.035-.036.04-.031.044-.027.04-.031.036-.036.035-.038.032-.04.029-.042.024-.045.022-.047.024-.046.027-.044.029-.042.033-.048.022-.033.003-.004.027-.043.026-.044.025-.045.025-.045.027-.043.03-.041.037-.036.038-.035.033-.039.026-.044.023-.047.02-.047.019-.048.015-.049.014-.051.016-.049.016-.051.018-.048.025-.044.032-.039.036-.037.038-.035.036-.037.034-.039.033-.039.031-.04.027-.043.024-.045.022-.047.02-.047.019-.048.019-.048.018-.048.015-.049.013-.05.01-.051.003-.019.005-.032.007-.051.004-.051v-.052s.002-.052.002-.052l.004-.051.004-.052.005-.052.008-.05.013-.05.016-.05.019-.05.022-.048.026-.043.031-.036.044-.023.052-.012.065-.003.038.004.05.013.05.007.05-.005.05-.01.05-.014.048-.017.046-.02.044-.026.042-.03.04-.033.038-.034.039-.033.038-.035.036-.037.033-.039.029-.041.026-.046.022-.048.016-.051.008-.05-.006-.049-.017-.049-.02-.05-.012-.049-.004-.052v-.052s.002-.052.002-.052l.007-.052.011-.049.02-.046.028-.044.03-.042.028-.044.023-.046.019-.048.018-.049.02-.048.023-.045.027-.044.03-.041.031-.041.032-.041.03-.041.03-.042.026-.035.004-.006.03-.042.028-.042.027-.044.024-.045.022-.047.023-.046.026-.044.031-.04.074-.07.039-.034.037-.035.034-.038.032-.041.031-.041.006-.008.026-.034.03-.044.028-.043.025-.045.021-.046.017-.047.01-.05.003-.052-.002-.053-.006-.053-.003-.02-.005-.031-.012-.05-.018-.049-.023-.048-.028-.043-.034-.037-.039-.032-.042-.029-.043-.028-.044-.029-.04-.031-.04-.032-.041-.031-.041-.032-.04-.033-.038-.034-.036-.035-.033-.038-.028-.041-.025-.045-.021-.047-.02-.048-.019-.049-.02-.047-.021-.048-.019-.049-.015-.049-.008-.05.002-.051.008-.052.013-.051.013-.05.014-.05.015-.05.016-.049.018-.048.02-.047.024-.045.06-.083.03-.042.025-.044.023-.046.021-.047.02-.047.02-.048.021-.047.026-.045.026-.045.02-.047.009-.049.004-.052v-.052s0-.052,0-.052l-.002-.051-.002-.053-.003-.051-.005-.051-.005-.052-.006-.052-.005-.051-.003-.052-.003-.052-.003-.051-.004-.052-.006-.051-.007-.052-.007-.051-.006-.051-.003-.052-.004-.052-.006-.051-.01-.051-.015-.049-.018-.048-.018-.048-.017-.049-.014-.05-.014-.05-.013-.05-.012-.05-.011-.05-.009-.051-.008-.051-.008-.051-.009-.051-.01-.05-.01-.051-.012-.05-.015-.049-.017-.048-.019-.048-.019-.048-.018-.048-.019-.048-.018-.049-.014-.049-.01-.05-.006-.051-.004-.052-.003-.052-.005-.052-.004-.052-.003-.054-.01-.05-.026-.039-.043-.029-.046-.026-.044-.026-.045-.024-.044-.025-.041-.029-.037-.034-.035-.037-.034-.039-.033-.039-.033-.039-.035-.039-.031-.041-.025-.043-.013-.047-.003-.06.003-.045.006-.052.006-.052.008-.052.011-.051.016-.048.022-.045.03-.042.035-.039.037-.035.04-.031.043-.026.044-.026.041-.031.04-.031.039-.033.037-.035.034-.038.033-.039.031-.04.031-.041.033-.04.035-.038.035-.039.034-.039.03-.041.026-.043.017-.047.079.046.048.017.048.016.05.012.05.012.049.013.046.018.042.027.041.033.037.039.03.041.019.045.011.049.006.052.002.053v.053s.003.052.003.052l-.004.052-.005.052.005.05.015.048.02.046.024.046.024.046.022.047.019.047.026.1.011.051.013.049.017.05.017.051.02.05.025.045.033.034.042.027.049.024.052.018.052.009h.048l.043-.014.042-.027.04-.037.036-.042.031-.045.01-.018.014-.025.018-.047.014-.049.012-.051.01-.052.012-.051.014-.05.014-.05.014-.05.014-.05.014-.049.015-.05.015-.05.016-.049.016-.049.014-.049.011-.05.008-.05v-.052s-.002-.052-.002-.052l-.003-.052v-.052s.008-.052.008-.052l.009-.052.011-.053.014-.05.017-.047.027-.035h.057s.002,0,.002,0l.016-.039v-.009s-.002-.047-.002-.047l-.003-.058.01-.047.003-.003.031-.029.05-.026.055-.016.048-.004.026.034.015.06.038.003.047-.023.051-.026.049-.01.049.005.049.014.049.017.048.016.047.021.046.024.047.018.049.005.05-.002.051-.006.05-.007.05-.005.05-.006.05-.006.05-.006.05-.005.05-.003h.052s.051,0,.051,0l.05-.003.048-.01.037-.036.037-.035h.052s.053.01.053.01l.036-.022.019-.054.018-.054.032-.02.049.024.051.016.046-.02.047-.02.051.01.048.003.038-.033.022-.02.016-.016.049-.004.052.003.047-.019.046-.029.045-.027.045-.018.044.006.044.032.045.031.046.007.048-.018.097-.039.046.009.044.025.044.03.046.022.048.016.049.013.049.012.05.01.05.008.05.008.051.005.05.003.051-.006.051-.011h.049s.047.015.047.015l.044.028.041.033.036.035.033.039.032.041.032.04.032.04.033.039.035.039.037.037.042.024.048.007.051-.003.052-.006.051-.005.052-.01.049-.002.044.018.04.029.039.036.039.035.041.03.045.021.049.013.051.007.051.006.05.005h.051s.05-.002.05-.002l.05-.008.048-.02.048-.022.017-.005.03-.007.046.008.045.022.044.028.045.028.095.035.054.01.054.003.049-.007.041-.02.032-.035.027-.044.026-.048.028-.046.033-.039.04-.03.044-.027.046-.024.045-.024.047-.022.044-.024.031-.041.024-.049.022-.051.025-.046.032-.033.042-.017.048-.005.052.003.054.004h.053s.05-.005.05-.005l.046-.017.044-.025.042-.028.042-.031.042-.031.014-.01.028-.019.044-.024.046-.022.046-.02.047-.02.046-.02.045-.022.045-.024.043-.027.043-.027.041-.028.042-.029.04-.03.04-.032.039-.033.04-.031.04-.032.018-.012.026-.017.047-.027.043-.029.035-.033.018-.042-.01-.108-.012-.052-.023-.052-.016-.05.01-.041.034-.035.045-.03.044-.033.033-.039.024-.049.021-.052.023-.045.032-.031.045-.01.052.004.054.007.052-.003.05-.01.049-.015.045-.022.041-.03.039-.036.034-.04.024-.044.009-.049v-.054s.001-.051.001-.051l.015-.05.027-.048.033-.043.038-.031.045-.009.053.012.05.015.047.021.047.022.047.015.049.004.051-.003.051-.008.05-.014.046-.018.043-.027.04-.033.038-.035.035-.037.031-.04.029-.042.023-.048.02-.05.037-.027.048-.014.052-.007.051-.008.05-.008.05-.007.051-.004.05-.003.05.002.051.003.05-.002.05-.013.049-.017.048-.014h.047s.045.024.045.024l.044.031.047.007.051-.022.047-.007.041.024.038.035.037.038.04.035.043.027.045.022.047.02.046.021.045.024.044.026.043.027.042.026.045.026.045.022.048.014.052.002.051.004.044.02.033.044.034.041.044.014h.048s.051-.003.051-.003l.052-.007.052-.007.05-.005.05-.005.05-.006.033-.004h.018s.053,0,.053,0h.05l.032-.033.023-.05.033-.038.046-.026.049-.011.05.014.049.02.044-.008.036-.042.039-.024.048.027.041-.02.039-.031.048.007.051.014.05.004h.052l.05-.007.044-.02.038-.035.042-.028.051-.009.016-.048.025-.038h.053s.046-.016.046-.016l.028-.04.023-.048.022-.036.006-.01.035-.038h.018s.026.004.026.004l.048.022.049.02.049.007.051-.007.048-.022.046-.028.042.003.036.046.039.02.044-.024.045-.035.044-.023.04.016.037.044.04.028h.051s.051-.014.051-.014l.044-.024.04-.031.039-.035.037-.036.035-.036.033-.039.032-.04.036-.037.037-.035.039-.033.04-.031.041-.029.042-.029.042-.029.041-.03.028-.023.054-.036.046-.018.051-.008.05-.007.048-.014.041-.027.039-.034.04-.032.044-.024.048-.017.048-.017.048-.02.051-.02.042-.026.014-.042-.016-.057.017-.038.048-.021.052-.013.05-.012h.05l.046.022.045.023.048-.005.049-.017.049-.016.05-.01.052-.005.048.007.039.027.035.038.033.042.031.04.029.042.029.043.033.04.037.04.042.021h.047s.05-.013.05-.013l.05-.016.049-.015.048-.015.048-.016.047-.019.045-.022.044-.025.044-.025.045-.023.045-.023.017-.008.028-.014.047-.022.048-.025.048-.019.089.018.04.037.034.041.028.042.025.045.024.046.027.043.031.041.033.039.035.036.035.039.037.037.04.029.047.011.053-.004.048.009.041.031.039.036.042.025h.048s.051-.013.051-.013l.05-.016.048-.002.044.021.071.037.099.04.092.043.073.059.037.036.036.037.036.038.038.034.04.03.043.024.05.02.052.014.05.004.043-.01.036-.034.033-.044.034-.042.042-.026.05-.019.053-.011.049.003.042.019.038.032.035.039.035.041.035.04.036.036.035.038.035.038.035.039.036.036.038.033.04.029.044.025.045.02.046.018.048.017.048.016.048.016.048.018.047.019.045.022.045.023.044.025.043.025.044.026.044.024.044.024.046.022.047.02.047.019.047.02.046.021.045.024.042.027.041.031.039.034.039.034.036.03.043.034.042.027.044.021.048.014.049.01.051.007.051.006.051.006.05.009.051.013.051.013.052.012.051.007.048.002.046-.006.044-.017.041-.026.039-.034.038-.036.038-.037.039-.036.04-.031.041-.03.042-.029.042-.029.043-.026.044-.025.046-.022.048-.021.05-.018.05-.011h.048s.048.008.048.008l.049.014.05.018.009.004.039.018.046.026.042.029.036.031.022.039.002.003.014.051.011.054.016.05.027.042.033.039.038.036.04.032.042.029.043.025.048.018.049.016.049.016.046.02.042.026.031.031.037.046.033.039.037.033.043.027.047.022.047.021.048.021.046.022.042.026.037.032.032.038.027.045.022.048.018.049.013.049.005.051v.053s.002.053.002.053l.006.051.002.005.013.043.02.048.025.046.003.005.025.039.032.04.036.035.044.025.048.022.044.025.035.034.028.041.023.046.021.048.019.049.018.048.016.049.012.051.013.05.015.049.019.048.027.042.035.037.038.036.036.037.03.041.027.044.026.045.025.044.028.043.029.042.03.041.031.042.031.041.031.041.031.041.03.033.041.038.04.031.042.029.043.028.044.027.044.026.043.027.043.026.043.026.044.026.044.025.045.024.045.023.046.022.046.02.047.02.047.018.047.018.036.013.012.004.048.017.053.012.056.01.055.01.049.014.039.022.025.032.009.044-.01.109-.009.057-.006.055-.003.052-.003.051-.004.052-.004.052-.005.051-.007.051-.01.051-.01.051-.009.051-.006.05v.052s.005.052.005.052l.011.051.015.05.02.046.023.046.025.045.023.046.02.047.017.048.016.05.015.049.016.049.017.045.022.052.023.048.022.048.019.048.015.048.008.048-.002.048-.015.048-.02.048-.023.049-.021.049-.007.025-.007.024-.012.051-.01.052-.006.051-.002.051v.053s.007.052.007.052l.01.051.016.048.02.047.022.047.025.046.027.044.03.042.031.039.037.035.04.031.009.007.033.022.043.029.041.031.042.031.044.03.04.033.031.037.02.046.012.05.008.052.006.053.009.052.014.049.021.045.026.044.028.043.03.042.032.042.034.039.035.039.036.036.037.035.039.032.042.028.044.025.046.023.044.022.049.024.045.024.043.027.04.03.038.035.036.037.034.039.033.039.033.04.034.039.035.037.038.034.04.03.041.028.043.026.044.025.045.024.046.023.046.022.046.021.046.021.047.018.048.018.048.016.048.016.048.016.048.017.048.018.047.02.046.021.047.021.046.022.046.024.043.025.042.028.04.031.036.035.034.039.032.041.032.041.033.039.035.038.035.037.035.039.037.038.037.035.039.03.042.025.047.016.05.009.052.007.052.006.05.012.045.017.042.027.039.031.037.035.037.037.036.037.038.035.04.032.041.031.042.031.04.032.037.035.032.038.028.041.024.045.022.048.02.048.017.05.016.05.013.05.01.05.008.052.006.052.006.052.006.052.007.052.01.05.012.049.015.048.025.042.21.221.024.141.055.336-.068.448-.074.243.018.13.074.191.021.056-.003.235-.048.216-.189.447-.025.098-.034.132-.016.062-.115.214-.152.117-.123.029-.179-.015-.184-.099-.09-.048-.06-.06-.321-.022-.137.052-.078.031-.112.09-.039.228.042.167.007.028.034.146.169.188.072.133.045.236.278.563.179.522.024.146-.074.353-.036.172-.576,1.09-.122.17-.04.115.041.229.004.023.026.148.026.335.013.156-.02.09-.148.664-.195.637-.172.561-.107.194-.053.056-.122.13-.297.316-.087.093-.025.058-.028.067-.054.226-.089.313-.034.26.033.059.014.053.115.237.008.016-.004.118-.006.012-.075.151-.002.004-.05.075-.076.116-.086.067-.532.194-.433.275-.116.115-.277.377-.002.004-.002.007-.087.277-.005.016.032.134.015.027.013.024.05.095.132.156.061.047.008.006.285.06.126.108.193.122.01.007.258.163.007.005.497.92.003.009.003.008.054.138.009.023.014.113-.317.95-.042.274-.14.472-.055.062-.088.331-.041.147-.014.051v.002s-.114.177-.114.177l-.03.088-.496,1.438-.049.063-.02.026-.14.31-.052.115-.11.172-.306.189-.252-.02-.214.018-.31.075-.028.007-.432.172-.18.103-.045.032-.112.079-.054.086-.022.035-.082.286-.004.016-.017.249.083.382.338.347.009.009.149.221.202.638.008.053.035.23-.025.155-.073.08-.004.002-.215.151-.015.031h.498l.122.455.002.303-.059.252-.212.226-.071.121-.183.543-.084.409-.113.55.004.226.116.269.197.272.13.179.317.346.114.156.009.185.073.151.116.139.042.051.152.238.109.364.01.358-.078.279-.098.16-.087.288-.123.237-.203.195-.267.211-.073.007-.229.129-.027.015-.166.198-.042.051-.106.3-.082.432-.102.543-.017.092-.004.199.007.049.014.1.029.196.179,1.072.184.678.036.21.04.235.137.329.062.069.039.097.037.097v.003s.041.236.041.236l.004.295.064.322.032.209v.57s-.023.446-.023.446l.011.095.049.45.028.376.115.532.138.333.002.113.148.877.02.34-.062.347.003.263.121.301.015.15-.025.086-.121.54-.11.849-.097.263-.038.104-.015.01-.045.031-.043.035-.044.03-.047.016h-.056l.009.169-.039.182-.039.071-.028.052-.372.354-.314.13-.156.033-.163.119-.38-.038-.028-.039.031-.053-.323-.249-.111-.05-.162-.022-.04.003-.237.02-.276.094-.147.007-.547-.069-.241.062-.147-.005-.245-.058h-.344l-.077.051-.041.186.014.075-.048.052-.137-.035-.098.051-.004.091.135.33.112.037.094.07.052.085.005.075-.063.122-.096.093.015.051-.049.063-.028.196-.065.177.081,1.132-.231.566.006.184.062.16.098.195.169.531-.004.117-.046.115-.18.214-.176.098-.247.195-.049.086v.104s-.046.102-.046.102l-.023.049-.178.256-.244.474-.222.317-.25.607-.156.24-.025.141Z"/><path class="cls-4" d="M158.493,30.091c-2.84-1.623-5.458-3.59-7.799-5.842l-.262.729c-.113.314-.462.479-.776.366l-3.363-1.209c-.314-.113-.479-.462-.366-.776l1.125-3.129c-.445-.565-.876-1.142-1.29-1.731l-2.558-.919c-.314-.113-.479-.462-.366-.776l.679-1.888c-2.007-3.623-3.461-7.596-4.246-11.803l-.032.017-.028.019-.015.01-.042.031-.041.03-.042.029-.044.025-.046.017-.05.006h-.053s-.054-.006-.054-.006l-.052-.002-.048.005-.042.017-.032.033-.025.047-.022.051-.024.049-.031.041-.044.024-.047.021-.044.024-.045.025-.044.027-.04.03-.033.039-.028.046-.026.048-.027.044-.032.035-.041.02-.049.007-.054-.003-.053-.01-.095-.035-.045-.028-.044-.028-.044-.022-.046-.008-.03.007-.017.005-.049.023-.048.02-.05.008-.05.003h-.051s-.05-.005-.05-.005l-.051-.005-.051-.008-.049-.013-.045-.021-.041-.03-.039-.035-.039-.036-.04-.029-.044-.018-.049.002-.052.01-.051.005-.052.005-.051.003-.048-.007-.042-.024-.037-.037-.035-.039-.033-.039-.032-.04-.032-.04-.032-.041-.033-.039-.036-.035-.041-.032-.044-.028-.047-.016h-.048s-.051.012-.051.012l-.051.006-.05-.003-.05-.005-.05-.008-.05-.008-.05-.01-.049-.012-.049-.013-.048-.016-.046-.022-.044-.03-.044-.025-.046-.009-.097.039-.048.017-.046-.007-.045-.031-.044-.032-.044-.006-.045.018-.045.027-.046.029-.046.019-.052-.004-.049.004-.016.016-.022.021-.038.033-.048-.003-.051-.01-.047.02-.046.02-.051-.016-.049-.024-.032.02-.018.054-.019.054-.036.022-.053-.008h-.052s-.037.034-.037.034l-.037.036-.048.011-.05.003h-.103s-.05.004-.05.004l-.05.005-.05.006-.05.006-.05.006-.05.005-.051.008-.051.006-.05.002-.049-.005-.047-.018-.046-.024-.047-.021-.048-.016-.049-.017-.049-.013-.049-.006-.049.01-.051.026-.047.023-.038-.004-.015-.06-.026-.034-.048.005-.055.016-.05.026-.031.029-.003.003-.01.047.003.058.002.047v.009s-.016.039-.016.039h-.059s-.027.036-.027.036l-.017.047-.014.05-.011.053-.009.052-.007.052v.052s.002.052.002.052l.003.052v.052s-.008.05-.008.05l-.011.051-.014.049-.016.049-.016.049-.015.05-.015.049-.014.049-.014.049-.014.05-.014.049-.014.05-.011.051-.011.052-.012.051-.014.05-.018.047-.014.026-.01.018-.031.044-.036.042-.04.037-.042.027-.043.014h-.049l-.052-.009-.052-.018-.049-.024-.042-.027-.033-.034-.025-.045-.02-.051-.017-.051-.017-.05-.013-.049-.011-.051-.026-.1-.019-.047-.022-.047-.024-.046-.024-.046-.02-.046-.015-.048-.005-.05.005-.052.004-.052-.002-.052v-.053s-.003-.053-.003-.053l-.006-.052-.011-.049-.019-.046-.03-.041-.037-.039-.041-.033-.043-.027-.046-.018-.049-.013-.05-.011-.05-.012-.048-.016-.048-.017-.079-.046-.017.048-.026.042-.03.041-.034.039-.035.039-.034.038-.033.039-.032.041-.031.04-.033.039-.034.038-.037.036-.039.033-.04.031-.041.031-.044.026-.043.026-.04.031-.037.035-.035.039-.03.043-.022.045-.016.048-.011.051-.008.052-.006.052-.006.051-.003.045.003.06.013.047.025.043.031.041.035.039.033.039.033.039.034.039.035.037.037.034.041.029.044.025.044.024.044.026.046.026.043.029.026.04.01.05.002.054.004.052.005.052.003.052.004.052.006.051.01.05.014.049.019.049.018.048.018.048.019.047.019.048.017.048.015.049.012.05.01.051.01.05.009.051.008.051.008.051.009.051.011.05.012.05.013.05.014.05.014.05.016.049.018.048.018.048.015.049.01.05.006.051.004.052.003.052.006.051.007.051.007.052.006.051.005.051.003.051.003.052.003.052.005.051.006.052.005.052.005.051.003.051.002.052.002.051v.052s0,.052,0,.052l-.004.052-.009.049-.02.047-.026.045-.026.045-.021.047-.02.047-.02.047-.021.048-.023.046-.025.044-.03.042-.06.083-.024.045-.02.047-.018.048-.016.049-.015.05-.014.05-.013.05-.013.051-.008.052-.002.051.008.05.015.049.019.049.021.048.019.048.019.049.02.048.021.047.025.045.028.041.033.038.036.035.038.034.039.033.041.032.041.031.04.032.041.031.043.029.044.028.042.029.039.032.034.037.028.043.023.048.018.049.012.05.005.031.003.021.006.053.002.053-.003.052-.01.05-.017.047-.021.046-.025.045-.028.043-.03.044-.025.034-.006.008-.032.04-.031.04-.034.038-.037.035-.039.034-.074.071-.031.04-.026.044-.023.046-.022.047-.024.045-.027.044-.028.042-.03.042-.004.006-.026.035-.03.042-.03.041-.032.041-.031.041-.03.041-.027.044-.023.045-.02.048-.018.049-.019.048-.023.046-.028.044-.03.042-.028.044-.02.046-.011.049-.007.052-.003.052v.052s.004.052.004.052l.013.05.02.05.017.049.006.049-.008.05-.016.051-.022.048-.026.045-.029.041-.033.039-.036.037-.038.035-.039.033-.038.034-.04.033-.042.03-.044.026-.046.02-.048.017-.05.014-.05.01-.049.005-.05-.007-.051-.013-.037-.004-.065.003-.052.012-.044.023-.031.036-.026.043-.022.048-.019.05-.016.05-.013.05-.008.05-.005.052-.004.052-.004.051v.051s-.002.053-.002.053l-.004.051-.007.051-.005.032-.003.019-.011.051-.012.05-.016.049-.018.048-.019.048-.019.047-.02.048-.022.047-.024.045-.027.043-.031.04-.033.039-.034.039-.036.037-.038.035-.036.037-.032.039-.025.044-.018.048-.016.051-.016.049-.014.051-.015.049-.019.048-.02.047-.023.047-.026.044-.033.039-.038.035-.037.036-.031.041-.027.043-.025.045-.025.045-.026.044-.027.043-.003.004-.022.033-.033.048-.028.042-.027.044-.024.046-.022.047-.024.045-.029.042-.032.04-.035.038-.036.036-.04.031-.044.027-.04.031-.035.036-.034.039-.032.041-.03.041-.028.043-.027.044-.027.044-.018.029c3.372,13.767,13.973,24.696,27.551,28.533l.064-.345.082-.432.106-.301.043-.051.166-.198.026-.015.23-.129.073-.007.267-.211.203-.195.123-.237.087-.288.098-.16.078-.28-.01-.357-.11-.364-.152-.239-.042-.051-.116-.139-.073-.151-.009-.185-.114-.156-.317-.346-.13-.179-.197-.272-.116-.269-.004-.226.113-.55.084-.41.183-.542.071-.121.212-.226.059-.252-.002-.303-.122-.454h-.498l.015-.031.214-.151.004-.002.073-.08.024-.155-.035-.23-.008-.053-.202-.638-.148-.22-.009-.009-.338-.347-.083-.382.017-.249.004-.016.082-.286.022-.035.054-.086.112-.079.045-.032.179-.103.432-.172.028-.007.31-.075.214-.018.252.021.306-.19.11-.172.052-.115.14-.31.02-.026.049-.063.496-1.438.03-.088.114-.179.014-.051.031-.112ZM140.012,21.876c.314.113.663-.052.776-.366l1.209-3.363c.113-.314-.052-.663-.366-.776l-3.363-1.209c-.314-.113-.663.052-.776.366l-1.209,3.363c-.113.314.052.664.366.776l3.363,1.209ZM144.72,23.927l-3.363-1.209c-.314-.113-.663.052-.776.366l-1.209,3.363c-.113.314.052.663.366.776l3.363,1.209c.314.113.663-.052.776-.366l1.209-3.363c.113-.314-.052-.663-.366-.776Z"/><path class="cls-3" d="M155.519,44.907c-13.578-3.838-24.179-14.766-27.551-28.533l-.009.015-.027.044-.025.045-.023.046-.022.046-.022.047-.022.046-.023.046-.024.045-.026.044-.029.042-.03.041-.031.042-.031.041-.033.041-.03.041-.023.044-.012.05-.007.053-.009.051-.019.047-.024.045-.025.044-.026.044-.027.044-.028.043-.028.043-.029.043-.029.043-.029.043-.029.042-.03.042-.031.041-.031.04-.032.04-.032.041-.034.042-.034.038-.035.037-.035.038-.034.038-.034.039-.032.04-.03.043-.029.044-.029.044-.031.04-.034.035-.041.027-.047.019-.05.015-.05.015-.048.016-.049.014-.049.015-.047.018-.045.023-.045.025-.045.027-.041.031-.015.014-.021.02-.031.039-.027.042-.024.045-.023.047-.021.047-.021.048-.022.047-.021.046-.021.047-.021.047-.019.048-.019.048-.017.048-.014.049-.013.05-.014.05-.016.049-.018.048-.017.044-.002.004-.016.049-.013.05-.01.051-.009.051-.01.05-.013.05-.018.048-.023.047-.026.045-.028.043-.03.042-.036.038-.04.036-.035.038-.022.042-.007.048.002.052.007.053.007.053.002.045v.007s0,.051,0,.051v.052s-.002.052-.002.052l-.005.051-.007.051-.01.051-.012.05-.014.049-.017.049-.018.049-.02.047-.022.047-.023.046-.025.045-.026.044-.027.044-.029.043-.03.041-.031.041-.027.029-.043.047-.038.035-.04.03-.044.024-.048.02-.048.018-.046.022-.041.03-.037.035-.039.034-.043.027-.045.024-.047.019-.049.012-.051.007-.051.005-.035.005-.016.003-.048.014-.046.022-.045.026-.045.024-.049.016-.051.01-.045.019-.037.033-.033.041-.03.043-.03.042-.03.044-.024.046-.014.048-.002.051.005.052.009.052.012.051.016.049.019.048.019.048.015.049.014.05.012.051.008.05v.051s-.002.052-.002.052l-.007.051-.009.051-.009.051-.01.05-.011.051-.012.05-.013.05-.014.05-.014.05-.015.049-.012.041-.018.057-.017.049-.017.048-.029.075-.003.008-.005.012-.02.047-.02.047-.021.047-.023.047-.024.045-.024.046-.022.047-.018.048-.014.049-.012.05-.012.05-.014.05-.015.049-.015.049-.017.049-.017.049-.019.048-.021.047-.025.045-.027.043-.028.044-.026.044-.023.046-.017.048-.013.051-.007.027-.006.023-.019.047-.024.046-.027.045-.03.043-.033.04-.035.035-.042.028-.047.021-.049.018-.049.015-.029.006-.021.003-.051.009-.05.007-.051.006-.05.008-.05.013-.048.016-.048.018-.049.015-.052.012-.047.019-.036.034-.032.04-.03.043-.03.043-.031.041-.035.037-.039.034-.039.033-.038.034-.035.037-.031.041-.028.043-.027.044-.029.043-.03.041-.033.041-.03.041-.026.044-.024.046-.022.047-.018.048-.011.049v.052s.003.053.003.053v.052s-.014.047-.014.047l-.024.045-.03.043-.034.04-.036.037-.037.035-.04.033-.041.031-.043.029-.043.026-.045.023-.048.02-.049.016-.049.014-.05.01-.05.009-.051.008-.05.007-.051.006-.051.006-.051.005h-.052s-.051,0-.051,0l-.051.002-.05.005-.049.011-.048.016-.048.018-.047.021-.046.021-.046.023-.045.025-.033.02-.011.006-.043.027-.044.027-.043.029-.041.031-.039.034-.04.035-.035.039-.025.043-.014.048-.009.051-.003.053v.053s.002.051.002.051l.004.052.008.052.011.051.014.05.019.047.029.043.033.041.029.043.019.047.008.052.005.052.01.052.01.052v.017s0,.033,0,.033l-.037.095-.027.045-.032.041-.035.036-.039.033-.042.031-.043.029-.043.029-.043.028-.044.026-.045.023-.046.024-.045.024-.045.025-.045.024-.045.024-.045.024-.044.025-.045.024-.046.023-.046.023-.031.016-.014.007-.044.026-.04.031-.037.036-.034.039-.034.039-.035.037-.035.038-.035.038-.035.038-.036.036-.037.036-.035.037-.031.041-.027.043-.027.044-.031.04-.034.039-.035.038-.036.036-.037.035-.04.033-.041.031-.041.031-.041.03-.043.03-.043.026-.045.025-.046.023-.047.022-.046.022-.047.021-.047.021-.041.017-.054.02-.048.017-.048.018-.04.016-.008.003-.048.018-.049.015-.049.013-.05.012-.05.01-.05.011-.05.011-.008.002c1.81,9.206,6.824,17.263,13.833,22.96-.018-.293.016-.593.107-.889l.827-2.685-2.685-.827c-1.329-.409-2.081-1.831-1.672-3.16.41-1.329,1.832-2.081,3.16-1.672l2.685.827.827-2.685c.41-1.329,1.832-2.081,3.16-1.672,1.329.409,2.081,1.831,1.672,3.16l-.828,2.685,2.685.827c1.329.409,2.081,1.831,1.672,3.16-.409,1.329-1.831,2.081-3.16,1.671l-2.685-.827-.827,2.685c-.268.871-.972,1.494-1.799,1.705,5.15,3.404,11.146,5.633,17.605,6.301l-.116-.363-.098-.195-.062-.16-.006-.184.231-.566-.081-1.132.065-.177.028-.196.049-.063-.015-.051.096-.092.064-.122-.006-.075-.052-.085-.094-.07-.112-.037-.135-.33.003-.091.098-.051.137.035.048-.052-.014-.075.041-.186.077-.051h.344l.245.058.147.005.241-.062.547.069.147-.007.276-.094.237-.02.04-.003.163.022.111.05.323.249-.031.053.028.038.38.038.163-.119.156-.033.315-.13.372-.354.028-.052.039-.071.039-.182-.008-.169h.056l.047-.016.044-.03.044-.035.045-.031.015-.01.038-.104.097-.263.11-.849.121-.54.025-.086-.015-.149-.121-.301-.003-.263.062-.347-.02-.34-.149-.877-.002-.113-.138-.333-.115-.532-.028-.376-.049-.45-.011-.095.024-.446v-.57s-.033-.209-.033-.209l-.064-.322-.004-.295-.039-.236v-.003s-.038-.096-.038-.096l-.039-.097-.062-.069-.137-.329-.04-.235-.036-.21-.184-.678-.179-1.072-.029-.196-.014-.1-.007-.049.004-.199.017-.092.037-.199Z"/><path class="cls-2" d="M151.84,61.837c-6.459-.669-12.455-2.897-17.605-6.301-.435.111-.903.107-1.361-.033-1.033-.318-1.717-1.249-1.779-2.272-7.009-5.698-12.023-13.754-13.833-22.96l-.041.01-.05.013-.05.013-.05.012-.05.012-.05.009-.05.007-.051.005-.052.003h-.052s-.051,0-.051,0l-.045-.005h-.006s-.049-.01-.049-.01l-.043-.026-.042-.033-.045-.026-.047-.018-.049-.016-.049-.013-.049-.013-.05-.012-.051-.009-.05-.005h-.051s-.052,0-.052,0l-.051.004-.051.006-.053.005-.051.009-.048.015-.043.025-.04.031-.038.036-.036.039-.034.039-.032.04-.029.043-.028.043-.03.043-.032.04-.033.04-.033.04-.035.038-.037.035-.04.031-.044.027-.047.022-.048.017-.049.014-.051.009-.051.006h-.051l-.05-.005-.05-.01-.05-.014-.05-.013-.05-.01-.051-.009-.051-.006-.051-.003h-.053s-.054.003-.054.003l-.045.019-.033.035-.029.043-.013.024-.012.023-.022.049-.02.049-.018.048-.016.05-.013.051-.01.051-.005.051v.05s.009.05.009.05l.015.05.018.049.016.05.014.05.015.049.016.049.014.05.012.049.009.051.005.051.003.051v.052s-.003.052-.003.052l-.006.051-.01.051-.013.05-.014.05-.014.05-.012.05-.008.044v.007s-.009.051-.009.051l-.007.052-.005.053-.005.052-.002.052v.051l.004.051.009.048.024.044.032.043.03.044.02.048.016.05.009.052-.002.05-.011.05-.017.048-.02.048-.022.048-.02.048-.02.048-.022.047-.022.047-.022.047-.02.048-.018.048-.015.049-.011.051-.008.051-.004.051.003.052.008.051.011.051.016.048.021.048.022.047.024.046.024.045.02.048.016.049.014.051.008.052-.002.05-.01.05-.017.05-.022.048-.024.045-.03.041-.035.038-.04.035-.041.031-.043.027-.046.024-.044.026-.043.028-.04.032-.039.034-.037.035-.043.041-.053.048-.04.034-.039.035-.036.036-.031.04-.022.044-.014.05-.011.052-.013.051-.017.049-.017.048-.016.049-.006.026-.006.024-.006.051-.004.051-.006.051-.01.05-.011.05-.012.05-.013.05-.014.05-.014.05-.012.05-.012.05-.012.05-.021.091.029.049.048.033.076.009.101-.012.104-.014.097-.012.028.05.034.046.046.037.049.035.038.044.03.05.026.053.026.053.029.051.034.048.036.046.036.047.034.047.033.048.035.05.03.048.026.052.019.055.014.056.01.058.008.059.007.059.007.058.007.058.005.059.002.059v.058s-.008.058-.008.058l-.013.058-.02.054-.027.052-.031.05-.033.049-.034.049-.032.049-.03.05-.03.05-.03.05-.032.05-.033.048-.034.047-.037.046-.037.045-.038.044-.037.045-.037.045-.037.045-.037.045-.036.046-.034.047-.033.048-.035.047-.039.043-.042.04-.042.041-.039.043-.038.044-.039.044-.042.041-.049.034-.048.035-.038.042-.028.051-.021.056-.013.058-.006.058.002.05.01.068.018.054.028.05.035.048.038.045.04.042.046.037.048.034.05.03.05.029.052.028.051.027.053.025.052.026.052.026.053.026.053.026.048.031.041.04.035.047.031.051.029.051.029.052.028.052.024.054.018.055.01.057.003.058-.002.059-.005.059-.006.058-.012.057-.016.056-.015.057-.01.057-.007.058-.004.058-.005.058-.006.058-.006.058-.005.058v.058s.005.058.005.058l.01.058.012.058.01.058.01.058.011.058.011.058.008.056.006.059v.058s-.003.061-.003.061l-.011.061-.02.055-.031.044-.052.031-.062.015-.056-.003-.054-.017-.054-.025-.053-.028-.053-.028-.051-.028-.049-.031-.05-.029-.052-.026-.055-.024-.056-.018-.056-.005-.06.008-.058.02-.046.032-.037.047-.028.055-.013.056v.057s.009.059.009.059l.014.059.019.056.024.052.035.046.04.044.037.046.032.05.031.051.026.052.017.055.005.057-.003.059-.004.06v.059s.003.058.003.058l.008.058.007.058.005.058.003.059.003.059.005.058.009.058.017.056.024.053.025.055.017.055.006.057v.059s-.006.059-.006.059l-.007.059-.007.059-.006.058-.007.058-.008.058-.008.058-.008.058-.008.058-.008.057-.009.059-.009.058-.009.058-.007.059-.006.055-.008.063-.012.057-.018.054-.025.053-.029.051-.033.05-.035.048-.037.045-.04.041-.045.037-.047.036-.047.036-.046.038-.049.035-.048.036-.039.042-.026.05-.018.054-.013.058-.009.06-.007.059-.005.059v.058s0,.013,0,.013l.002.046.004.059.004.059.003.059.003.059.004.058.005.058.006.058.008.058.009.058.011.058.011.057.012.058.013.057.014.057.016.056.019.055.019.056.018.056.014.057.014.057.013.058.011.057.01.058.007.058.004.058v.058s-.001.059-.001.059l-.003.059-.002.058-.002.059-.002.059-.006.058-.012.056-.023.054-.029.053-.029.052-.019.055-.005.056.005.058.012.059.015.058.016.056.021.055.023.053.026.053.027.051.031.05.031.05.023.038.035.064.026.052.025.053.027.052.031.05.037.046.037.046.031.049.023.053.018.056.018.056.019.057.019.053.02.056.021.054.026.052.031.05.034.048.034.048.031.049.031.05.032.051.028.051.023.053.016.056.007.061-.005.058-.021.051-.037.046-.034.033-.01.01-.045.038-.051.032-.051.032-.041.039-.03.049-.023.056-.015.057-.009.057-.003.058v.059s.001.059.001.059l.002.058.003.059.004.059.007.058.011.057.017.056.02.055.018.056.013.056.01.058.009.042.003.015.018.056.02.055.023.055.027.052.033.047.042.039.048.036.048.036.045.037.045.038.043.04.038.044.035.047.033.049.03.051.026.052.024.053.02.056.014.057.007.058v.058l-.005.058-.005.031-.004.027-.009.059-.009.058-.01.058-.012.057-.011.058-.011.057-.011.058-.011.057-.01.058-.007.058v.022s-.004.036-.004.036v.059s.001.059.001.059l.004.058.003.059.002.06.003.06.004.059.007.058.011.056.016.055.021.042.037.056.041.044.043.043.042.042.043.04.044.039.045.037.047.036.047.035.048.033.05.031.051.029.052.029.05.031.048.033.047.035.047.036.045.038.043.039.04.042.039.044.037.046.036.047.035.047.034.048.032.05.028.051.026.053.025.055.019.056.01.056-.005.056-.02.056-.024.056-.021.055-.025.055-.02.056-.004.055.012.056.02.055.025.055.026.055.025.053.026.053.027.051.018.031.011.02.032.049.035.046.039.045.04.044.03.033.009.01.037.045.035.047.033.048.032.049.033.049.032.049.032.049.033.048.036.046.037.046.012.014.025.03.038.045.039.045.014.015.026.028.041.041.038.045.031.049.023.055.021.055.019.055.005.014.013.043.019.056.024.053.029.051.032.049.033.049.033.048.033.049.033.049.033.048.034.048.036.047.036.046.037.046.039.044.01.011.03.033.043.04.046.037.047.035.046.037.044.039.043.04.042.041.043.041.043.04.042.036.048.04.046.037.006.004.04.032.047.036.047.035.047.035.048.035.049.033.049.031.051.03.052.027.052.027.052.028.051.03.048.034.045.038.044.04.044.039.046.036.048.033.051.03.052.029.052.027.052.027.052.027.053.027.052.026.02.01.033.017.052.026.053.027.052.026.053.026.053.027.052.026.066.033.053-.025.053-.025.052-.027.049-.033.046-.038.044-.039.047-.035.05-.032.051-.031.053-.028.054-.02.057-.013.06-.007.06-.002.059.003.057.009.057.016.056.021.055.021.055.024.051.029.046.036.041.042.037.047.02.033.01.017.025.054.02.056.014.056.003.059v.022s-.001.003-.001.003l-.002.034-.003.059-.004.058-.005.059-.002.057v.058s.006.059.006.059l.006.058.006.058.005.058.005.058.009.058.01.059.014.058.022.053.033.048.039.045.045.04.048.034.051.029.054.025.055.022.055.021.055.021.056.018.056.017.056.018.055.021.053.025.052.026.053.027.053.026.054.024.054.023.054.024.053.026.052.029.05.031.049.033.048.034.047.035.046.036.047.036.092.075.086.079.08.087.06.1.041.11.043.109.032.113.004.117-.007.118.008.115.027.091.007.024.04.063.021.034.09.074.05.033.051.032.042.026.009.005.05.03.052.029.052.026.053.026.053.026.054.024.055.023.072.025.098.027.058.014.056.018.053.026.05.031.048.034.047.036.088.079.085.082.085.082.111.136.07.094.086.081.086.081.114.134.061.101.006.014.038.094.024.116.059.1.081.088.094.069.052.028.053.027.052.027.053.026.052.028.049.032.048.035.048.034.047.036.047.036.049.033.051.027.054.024.02.007.036.014.057.017.057.012.059.008.059.006.06.003h.059s.059,0,.059,0l.059-.003h.059s.06.002.06.002l.06.004.058.008.039.012.018.005.056.02.058.012.06-.002.06-.002.054.018.05.03.047.037.046.039.088.079.101.143.053.105.06.101.075.093.092.071.054.022.057.016.058.014.058.014.057.016.057.015.057.016.057.016.057.015.057.016.057.015.113.033.046.013.011.004.056.018.056.02.055.021.055.022.055.023.055.023.056.022.056.022.054.025.051.029.091.076.103.144.019.114.004.119.006.059.006.058.003.117-.024.115-.012.116.014.117.002.016.013.103.053.099.08.069.01.009.046.039.082.086.087.078.053.026.056.019.057.018.057.018.055.022.055.024.055.024.028.011.027.011.056.016.058.01.06.007h.06s.059-.001.059-.001l.057-.011.056-.022.056-.02.058-.016.058-.012.059-.002.059.004.059.01.057.013.056.02.054.024.055.023.057.016.058.012.058.01.059.01.059.01.06.008.058.01.056.015.054.024.051.03.05.034.048.034.087.08.048.033.056.023.054.024.089.078.064.098.043.11.029.113.012.117.015.116.035.112.048.107.058.103.072.092.085.083.047.039.051.031.055.014h.06l.061-.01.056-.018.052-.026.051-.032.048-.037.086-.079.078-.089.079-.088.085-.083.085-.081.041-.042.041-.042.08-.086.073-.092.065-.098.069-.095.077-.092.096-.061.059-.012.061-.006.059-.004h.06s.059.003.059.003l.057.012.057.018.055.024.051.03.088.077.08.088.073.092.016.024.047.075.052.105.023.054.024.054.043.109.031.113.02.115.041.11.042.109.013.06.012.055.028.113.05.107.062.1.07.096.083.082.05.031.053.027.054.026.054.023.056.02.056.018.057.016.058.013.058.013.057.015.056.021.111.043.058.008.059-.002.06-.003h.059s.06.004.06.004l.06.002h.059s.059,0,.059,0l.059-.005.058-.009.058-.012.058-.014.057-.015.057-.018.056-.018.056-.019.055-.021.056-.022.056-.019.057-.017.058-.015.058-.012.059-.007.059-.004h.059s.06,0,.06,0h.06s.06.002.06.002l.06.003h.059s.057-.007.057-.007l.056-.018.055-.024.053-.027.055-.024.055-.02.057-.02.057-.018.057-.017.057-.014.058-.008.06.004.059.008.06.008.056.018.049.033.046.041.061.098.021.118-.023.112-.044.11-.032.112-.033.113-.027.114-.008.117-.005.118.007.115.049.107.061.101.064.099.06.102.091.072.055.025.056.022.058.018.059.009.056-.008.055-.023.055-.026.055-.023.054-.023.055-.023.054-.029.054-.027.056-.007.059.012.056.024.093.071.043.042.04.038.035.035.019.035.037.069.058.102.068.096.077.09.084.082.094.072.05.032.052.028.054.025.056.02.058.015.058.007h.059s.06-.007.06-.007l.059-.013.057-.016.054-.023.053-.027.052-.029.053-.027.052-.029.052-.031.052-.028.054-.022.056-.014.059-.006h.06l.061.004.06.004.059.005.059.007.059.01.058.013.057.015.057.018.056.02.056.021.056.022.056.027.056.013.107-.044.054-.029.058-.02.061-.019.059-.011.102.035.045.043.04.048.061.1.053.106.066.1.133.108.058.017.06.011.059.009.059.002.06-.002h.059s.058.006.058.006l.117.025.057.015.057.015.058.014.058.016h.003s.052.02.052.02l.051.027.047.035.044.039.045.04.044.038.045.038.044.039.044.039.09.077.116.132.053.106.038.111.038.11.051.106.07.094.086.081.092.075.048.035.048.034.048.034.05.032.05.031.051.03.051.029.052.029.054.026.054.022.057.022.057.02.058.014h.022s.035.004.035.004l.057-.01.057-.02.057-.021.058-.018.058-.011.059-.009.059-.008.059-.007.059-.007.059-.006.059-.005.06-.005.059-.004h.059s.059.008.059.008l.06.009.058.014.055.021.051.029.049.034.047.038.088.079.082.086.068.096.043.074.016.027.074.091.114.136.07.094.052.105.07.199.025.051.026.052.054.102.066.093.082.082.084.08.082.081.095.067.05.029.051.026.052.025.052.026.052.026.052.025.019.009.034.015.053.022.054.021.056.016.111.035.056.016.058.006.058.006.058.006.057.01.026.003.032.004.058-.003.058-.009.058-.007.058-.003.057-.01.055-.02.052-.025.049-.031.049-.03.096-.064.055-.018.056-.016.056-.015.057-.006.058-.002.058-.003.116-.01.054-.022.055-.018.053-.023.053-.022.057-.014.057-.014.054-.02.057-.01.057-.008.056-.016.054-.02.055-.018.057-.01.056-.016.051-.027.05-.03.051-.029.155-.109.094-.033.095.005.091.003.101-.006.1.004.099-.012.098-.016.1.01.098.018.086.016-.009-.022.443-.046v-.06h.005v-.005h.005v-.006h.009v-.005h.005v-.011h.01v-.027h.005v-.006h.005v-.022h-.005v-.012h-.005v-.011h-.005v-.005h-.009v-.005h-.009v-.006h-.005v-.022h-.005v-.017h-.004v-.011h-.005v-.005h.005v-.011h-.005v-.006h-.009v-.016h.014v-.005h.004v-.006h.005v-.005h.005v-.005h.004v-.011h.005v-.011h.005v-.006h.005v-.005h.005v-.006h.005v-.005h.005v-.011h-.009v-.011h-.005v-.006h-.009v-.038h.009v.006h.005v.005h.009v.006h.009v-.006h.014v-.005h.005v-.006h.005v-.005h.004v-.005h.005v-.011h.004v-.006h.005v-.005h.004v-.005h.005v-.006h.005v-.005h.005v-.011h.004v-.006h-.004v-.005h.004v-.033h-.004v-.016h-.005v-.006h-.005v-.022h.005v-.017h.005v-.005h.004v-.011h.009v-.017h-.005v-.016h.005v-.027h.009v.006h.005v.022h.004v.021h-.004v.017h.004v.017h.005v.005h.005v.011h.004v.005h.005v.006h.018v.005h.01v.006h.009v.006h.014v.005h.005v-.005h.004v-.006h.005v-.006h.005v-.005h.005v-.006h.005v-.022h.004v-.022h-.004v-.017h-.005v-.01h-.005v-.039h-.005v-.022h-.005v-.011h-.004v-.005h-.005v-.022h-.005v-.006h-.004v-.011h-.005v-.016h-.004v-.011h-.004v-.022h-.005v-.016h-.005v-.027h-.009v-.028h-.005v-.038h-.004v-.021h.009v-.006h.004v-.003l-.653-.332.112-.08.02-.083-.072-.46-.061-.069-.165-.018-.077.038-.135.2-.052.039-.107.021-.131-.013-.378-.193-.037-.256.013-.003.315-.072.197.049.174-.002.048-.048.02-.199.181-.327.039-.132-.109-.374-.14-.101-.214-.058-.122-.109-.016.079-.066-.023-.087-.17-.098.03-.064-.115.112-.067.041-.082-.053-.065-.153-.085-.147.086-.019-.063.014-.371-.087-.161-.162-.206-.062-.161-.052-.298-.071-.123-.046-.127-.042-.01-.09-.078-.014-.063.052-.139-.023-.734.035-.265.091-.405-.006-.175.105-.204.017-.112-.111-.396.01-.046.117.025.051-.127.112-.275.058-.423-.028-.484-.067-.465v-.317s.087-.486.087-.486l.021-.118.025-.141.156-.24.25-.607.222-.317.244-.474.178-.256.022-.049.047-.102v-.104s.049-.086.049-.086l.247-.195.176-.098.18-.214.047-.115.004-.117-.054-.168Z"/></svg>