<?xml version="1.0" encoding="UTF-8"?><svg id="Capa_1" xmlns="http://www.w3.org/2000/svg" viewBox="0 0 19.383 30.009"><defs><style>.cls-1{fill:#518c1c;}.cls-1,.cls-2,.cls-3{fill-rule:evenodd;}.cls-2{fill:#619f2f;}.cls-3{fill:#72b341;}</style></defs><path class="cls-3" d="M15.472,29.28v.002h.007v.002h.011v.002h.013v.002h.004v-.002h.002v.002h.005v.002h.002v.002h.003v.005h.004v.002h.002v.002h.002v.002h.002v.002h.005v.002h.002v.002h.011v.002h.002v.002h.002v.002h.004v.002h.007v.002h.002v.002h.002v.002h.002v.002h-.002v.002h.002v.009h.002v.004h.004v.002h.002v.002h.002v.002h.002v.002h.004v.002h.002v.002h.002v.002h.002v.002h.002v.002h.006v.004h.003v.002h.002v.002h.002v.002h.002v.002h.002v.002h.002v.002h.002v.005h.003v.002h.002v.002h.002v.002h.002v.002h.002v.002h.006v-.002h.002v.004h.002v.002h.003v.008h.002v.002h.004v.002h.002v-.002h.004v.002h.006v.002h.003v.002h.002v.002h.002v.002h.002v.004h.002v.007h.002v.005h.002v.004h.002v.009h.002v.002h.002v.002h.002v.002h.002v.007h.002v.002h.004v.002h.002v.002h.002v.002h.002v.002h.004v.015h.002v.005h.002v.01h-.002v.013h.002v.004h.002v.007h.002v.002h-.002v.007h-.002v.005h-.002v.006h.002v.002h.002v.005h-.002v.002h-.004v.002h-.002v.002h-.002v.002h-.002v.004h-.002v.002h-.009v.002h-.004v.002h-.029v-.002h-.015v-.004h-.005v-.002h-.004v-.002h-.002v-.002h-.003v-.002h-.011v-.002h-.015v-.002h-.004v-.002h-.007v-.002s-.004,0-.004,0v.002h-.002v-.002h-.004v-.002h-.002v-.002h-.007v-.002h-.002v-.002h-.004v-.002h-.004v-.002h-.002v-.002h-.002v-.002h-.002v-.004h-.002v-.002h-.002v-.004h-.002v-.002h-.002v-.002h-.002v-.004h-.002v-.009h-.002v-.01h-.002v-.009h-.002v-.002h-.002v-.013h-.002v-.002h.002v-.011h-.002v-.005h-.002v-.006h-.002s0-.002,0-.002h-.002v-.005h-.002v-.004h-.002s0-.013,0-.013h-.002v-.002h-.002v-.008h-.002v-.009h-.002v-.009h-.002v-.004h-.002v-.002h-.002v-.002h-.002v-.007h-.002v-.002h-.002v-.002h-.002v-.004h-.002v-.005h-.002v-.008h-.002v-.002h-.002v-.007h-.002v-.004h-.002v-.002h-.002v-.007h-.002v-.002h-.002v-.002h-.002v-.008h-.002v-.011h-.002v-.007h-.002v-.004h.002v-.004h-.002v-.013h.002v-.002h.003ZM14.879,28.976l-.007.016-.056-.046-.025-.039.01-.008.035.004.034.039.01.033ZM15.429,29.491v.002h.002v.007h-.002v.004h-.002v.002h-.002v.002h-.002v.002h-.002v.002h-.007v-.007h.002v-.002h.002v-.002h.002v-.002h.002v-.002h.002v-.004h.002v-.002h.004ZM16.366,22.697l-.053.026-.077-.006-.009-.01.022-.028.041-.016.046-.003.029.039ZM16.454,22.663l-.025.014-.073-.026-.059-.048.045-.021.059.012.026.015.027.053ZM5.856,17.887h0c.16-.52.717-.815,1.238-.654l1.052.324.324-1.052c.16-.52.717-.815,1.238-.655.52.16.815.717.655,1.238l-.324,1.052,1.052.324c.52.16.815.717.655,1.238-.16.52-.717.815-1.238.655l-1.052-.324-.324,1.052c-.16.52-.717.815-1.238.655-.52-.161-.815-.717-.654-1.238l.324-1.052-1.052-.324c-.52-.16-.815-.717-.655-1.238ZM10.69,8.568c.123.044.26-.02.304-.143l.474-1.317c.044-.123-.02-.26-.143-.304l-1.317-.473c-.123-.044-.26.02-.304.143l-.474,1.317c-.044.123.02.26.143.304l1.317.473ZM13.48,7.831l-.473,1.317c-.044.123.02.26.144.304l1.317.473c.123.044.26-.02.304-.143l.473-1.317c.044-.123-.02-.26-.143-.304l-1.317-.473c-.123-.044-.26.02-.304.143ZM13.257,7.358c.123.044.26-.02.304-.143l.473-1.317c.044-.123-.02-.26-.143-.304l-1.317-.473c-.123-.044-.26.02-.304.143l-.473,1.317c-.044.123.02.26.143.304l1.317.473ZM12.534,9.371l-1.317-.473c-.123-.044-.26.02-.304.143l-.473,1.317c-.044.123.02.26.143.304l1.317.473c.123.044.26-.02.304-.143l.473-1.317c.044-.123-.021-.26-.144-.304ZM14.62,25.506l-.008.046-.034.19v.124l.026.182.011.19-.023.166-.044.108-.02.05-.046-.01-.004.018.044.155-.007.044-.041.08.002.069-.036.159-.014.104.009.288-.02.055.005.025.035.03.016.004.018.05.028.048.02.117.024.063.063.081.034.063-.006.145.007.025.058-.034.06.033.02.025-.016.032-.044.026.025.045.039-.012.034.067.026.009.007-.031.048.043.084.023.055.039.042.147-.015.052-.071.128-.008.078-.019.019h-.068s-.077-.018-.077-.018l-.123.028h-.005s.014.101.014.101l.148.075.051.005.042-.008.02-.015.053-.078.03-.015.064.007.024.027.028.181-.008.033-.044.031.256.13h0s-.002.001-.002.001v.002h-.004v.009h.002v.015h.002v.011h.003v.011h.002v.006h.002v.009h.002v.004h.002v.007h.002v.004h.002v.002h.002v.009h.002v.002h.002v.005h.002v.008h.002v.015h.002v.004h.002v.006h.002v.009h-.002v.008h-.002v.002h-.002v.002h-.002v.002h-.002v.002h-.002v.002h-.002v-.002h-.006v-.002h-.004v-.002h-.004v-.002h-.007v-.002h-.002v-.002h-.002v-.005h-.002v-.002h-.002v-.007h-.002v-.007h.002v-.008h-.002v-.008h-.002v-.002h-.003v.011h-.002v.007h.002v.006h-.004v.005h-.002v.002h-.002v.007h-.002v.008h.002v.002h.002v.006h.002v.013h-.002v.002h.002v.002h-.002v.004h-.002v.002h-.002v.002h-.002v.002h-.002v.002h-.002v.002h-.002v.004h-.002v.002h-.002v.002h-.002v.002h-.002v.002h-.005v.002h-.004v-.002h-.004v-.002h-.002v-.002h-.003v.015h.003v.002h.002v.004h.004v.004h-.002v.002h-.002v.002h-.002v.002h-.002v.002h-.002v.004h-.002v.004h-.002v.002h-.002v.002h-.002v.002h-.002v.002h-.005v.006h.004v.002h.002v.004h-.002v.002h.002v.004h.002v.007h.002v.008h.002v.002h.004v.002h.003v.002h.002v.004h.002v.005h.002v.008h-.002v.002h-.002v.01h-.004v.005h-.002v.002h-.004v.002h-.002v.002h-.002v.023l-.174.018.003.009-.033-.006-.039-.007-.039-.004-.039.006-.039.005h-.039s-.039.001-.039.001h-.036s-.037-.003-.037-.003l-.037.013-.061.043-.02.011-.02.012-.02.011-.022.006-.022.004-.022.007-.021.008-.022.007-.022.003-.022.004-.021.008-.022.006-.022.006-.021.008-.021.009-.022.007-.021.008-.045.004h-.023s-.023.002-.023.002l-.022.002-.022.006-.022.006-.021.007-.037.025-.019.012-.019.012-.02.01-.021.008-.023.004h-.023s-.023.004-.023.004l-.023.003h-.023s-.012,0-.012,0h-.01s-.022-.005-.022-.005l-.023-.003-.023-.003-.023-.002-.022-.006-.043-.014-.022-.006-.021-.008-.021-.009-.014-.006-.007-.003-.021-.01-.02-.01-.02-.01-.02-.01-.02-.01-.02-.011-.037-.026-.032-.031-.033-.031-.032-.032-.026-.036-.021-.04-.01-.02-.01-.02-.027-.078-.02-.041-.028-.037-.045-.053-.029-.036-.007-.011-.017-.029-.026-.038-.032-.034-.034-.031-.018-.015-.019-.013-.02-.011-.021-.008-.023-.005-.023-.003-.023-.003h-.023s-.023,0-.023,0l-.023.002-.023.002-.023.002-.023.003-.023.003-.023.003-.023.003-.023.005-.022.007-.022.008-.022.007-.022.004h-.014s-.009-.001-.009-.001l-.022-.005-.023-.008-.022-.009-.021-.009-.021-.01-.02-.011-.02-.011-.02-.012-.02-.012-.02-.013-.019-.013-.019-.014-.019-.014-.036-.029-.034-.032-.028-.037-.02-.042-.015-.043-.015-.043-.021-.042-.045-.051-.035-.03-.017-.015-.017-.015-.018-.015-.018-.015-.017-.016-.018-.016-.018-.014-.02-.011-.02-.007h-.001s-.023-.007-.023-.007l-.023-.006-.022-.006-.023-.006-.046-.01-.023-.003h-.023s-.024,0-.024,0h-.023s-.023-.004-.023-.004l-.024-.004-.022-.007-.052-.042-.026-.039-.021-.041-.024-.039-.016-.019-.017-.017-.04-.014-.023.004-.023.008-.023.008-.021.012-.042.017-.022-.005-.022-.01-.022-.009-.022-.008-.022-.008-.022-.007-.022-.006-.023-.005-.023-.004-.023-.003-.023-.002-.024-.002h-.024s-.023-.001-.023-.001l-.023.002-.022.005-.021.009-.02.011-.02.012-.02.012-.021.01-.02.012-.021.011-.021.009-.022.007-.023.005-.023.003h-.023l-.023-.003-.023-.006-.022-.008-.021-.01-.02-.011-.02-.012-.037-.028-.033-.032-.03-.035-.027-.038-.022-.04-.014-.027-.007-.014-.014-.014-.016-.015-.017-.016-.036-.028-.022-.01-.023-.005-.022.003-.021.01-.021.011-.021.009-.021.009-.021.009-.022.01-.021.009-.022.003-.023-.003-.023-.007-.022-.008-.021-.01-.036-.028-.023-.04-.025-.039-.024-.039-.019-.042-.003-.045.002-.046.003-.046.01-.045.013-.044.012-.044.017-.043.009-.044-.008-.046-.024-.039-.018-.016-.019-.013-.022-.007-.023-.003-.023-.003h-.023s-.023.002-.023.002l-.022.006-.022.007-.022.007-.022.008-.022.008-.021.009-.021.01-.021.009-.022.007-.023.003h-.023s-.024-.001-.024-.001h-.023s-.023,0-.023,0h-.023s-.023,0-.023,0h-.023s-.023.004-.023.004l-.023.005-.023.006-.022.007-.022.007-.021.009-.022.008-.022.007-.022.007-.022.007-.023.006-.023.005-.023.005-.023.004-.023.002h-.023s-.023,0-.023,0h-.023s-.023-.002-.023-.002h-.023s-.023.001-.023.001h-.023s-.023-.003-.023-.003l-.043-.017-.022-.008-.022-.006-.023-.005-.022-.005-.022-.006-.022-.007-.022-.008-.021-.009-.021-.01-.021-.011-.02-.012-.033-.032-.027-.038-.024-.039-.019-.042-.011-.044-.005-.021-.005-.023-.016-.043-.016-.043-.008-.045-.012-.044-.017-.043-.009-.021-.009-.021-.02-.041-.019-.029-.006-.009-.029-.036-.031-.035-.035-.03-.02-.012-.021-.009-.022-.007-.022-.005-.023-.002h-.024s-.023.002-.023.002l-.024.002-.023.005-.038.024-.03.036-.027.037-.025.038-.029.036-.032.034-.016.016-.016.016-.034.032-.033.033-.031.034-.03.035-.034.031-.019.014-.02.013-.021.01-.022.007-.024.004h-.024l-.021-.005-.02-.012-.018-.015-.033-.032-.028-.036-.023-.04-.019-.042-.014-.044-.006-.045-.005-.046-.011-.044-.017-.043-.025-.038-.035-.03-.021-.01-.022-.009-.019-.013-.034-.032-.019-.013-.02-.013-.02-.012-.021-.009-.022-.006-.023-.004-.023-.003-.023-.004-.023-.004-.023-.004-.023-.005-.022-.006-.021-.009-.021-.01-.022-.008-.023-.005-.023-.004-.023-.002h-.023s-.023.006-.023.006l-.023.006-.022.007-.022.008-.022.005h-.023s-.024,0-.024,0l-.023-.003-.023-.004-.022-.007-.01-.004-.011-.004-.021-.009-.021-.009-.021-.009-.022-.007-.023-.007-.022-.007-.02-.01-.034-.03-.032-.034-.018-.015-.004-.003-.031-.027-.021-.039-.005-.04v-.006s-.007-.046-.007-.046l.005-.045.01-.045v-.046s-.003-.023-.003-.023l-.003-.023v-.047s-.009-.045-.009-.045l-.04-.056-.036-.029-.02-.012-.021-.01-.022-.009-.022-.008-.021-.009-.021-.009-.021-.009-.022-.008-.022-.008-.022-.007h-.005s-.018-.007-.018-.007l-.044-.013-.022-.006-.022-.006-.022-.006-.022-.006-.022-.006-.022-.006-.022-.006-.023-.006-.023-.005-.022-.007-.021-.008-.036-.028-.029-.037-.023-.039-.021-.041-.039-.056-.035-.031-.018-.015-.019-.014-.02-.012-.021-.007h-.024s-.023.001-.023.001l-.023-.005-.022-.008-.007-.002-.015-.005-.023-.003h-.023s-.023-.002-.023-.002h-.046s-.023.002-.023.002h-.023s-.023-.002-.023-.002l-.023-.002-.023-.003-.022-.005-.022-.006-.014-.005-.008-.003-.021-.009-.02-.011-.019-.013-.018-.014-.018-.014-.019-.013-.019-.014-.019-.013-.02-.011-.021-.01-.021-.011-.021-.011-.02-.011-.037-.027-.031-.034-.023-.039-.009-.045-.015-.037-.002-.006-.024-.039-.044-.053-.034-.032-.034-.031-.028-.037-.043-.054-.033-.032-.033-.032-.034-.031-.019-.014-.019-.013-.02-.012-.021-.01-.022-.007-.023-.006-.038-.01-.028-.01-.021-.009-.021-.01-.021-.01-.021-.01-.02-.01-.02-.011-.02-.012-.003-.002-.016-.01-.02-.013-.02-.013-.035-.029-.008-.013-.016-.025-.003-.009-.011-.036-.003-.045.003-.046v-.046s-.014-.044-.014-.044l-.017-.043-.016-.043-.023-.039-.032-.034-.034-.031-.036-.029-.018-.014-.018-.014-.019-.014-.019-.013-.019-.013-.02-.012-.02-.011-.021-.01-.021-.009-.021-.009-.021-.01-.021-.01-.021-.01-.02-.01-.021-.01-.022-.008-.022-.007-.022-.007-.022-.007-.021-.008-.022-.008-.022-.009-.021-.01-.02-.011-.019-.013-.018-.016-.015-.018-.013-.019-.009-.021-.005-.023-.004-.023-.003-.023-.002-.023-.002-.023-.002-.023-.002-.023-.002-.023v-.023s0-.023,0-.023v-.023s.003-.023.003-.023v-.023s.002-.013.002-.013h0s0-.01,0-.01v-.023s-.007-.022-.007-.022l-.008-.021-.01-.021-.004-.007-.008-.013-.015-.019-.016-.017-.018-.014-.02-.012-.021-.009-.021-.008-.022-.008-.022-.007-.023-.004h-.023s-.023,0-.023,0l-.023.003-.022.005-.021.008-.021.011-.02.012-.02.013-.018.013-.017.015-.018.015-.019.013-.02.011-.021.01-.021.01-.026-.013-.021-.01-.021-.01-.02-.01-.02-.01-.021-.01-.021-.01-.013-.007-.008-.004-.02-.01-.021-.01-.02-.011-.02-.011-.02-.011-.02-.011-.02-.012-.019-.013-.018-.014-.017-.015-.017-.016-.018-.015-.019-.013-.02-.012-.02-.011-.02-.011-.021-.011-.02-.012-.019-.012-.019-.013-.019-.014-.018-.014-.018-.014-.018-.014-.016-.012-.002-.002-.018-.014-.019-.016-.017-.014-.017-.016-.016-.016-.016-.016-.017-.016-.017-.015-.018-.014-.018-.014-.018-.014-.017-.016-.012-.012-.004-.004-.015-.017-.014-.018-.014-.018-.014-.018-.013-.018-.013-.019-.013-.019-.013-.019-.013-.019-.013-.019-.012-.019-.011-.02-.009-.021-.008-.022-.005-.017-.002-.005-.007-.021-.008-.022-.009-.021-.012-.019-.015-.017-.016-.016-.01-.011-.006-.006-.015-.018-.015-.018-.01-.012-.005-.006-.014-.018-.014-.018-.013-.019-.013-.019-.012-.019-.013-.019-.012-.019-.013-.019-.014-.019-.014-.018-.003-.004-.012-.013-.016-.017-.015-.017-.014-.018-.012-.019-.005-.008-.007-.012-.011-.02-.01-.021-.01-.021-.01-.021-.01-.021-.008-.022-.005-.022v-.021s.009-.022.009-.022l.01-.022.008-.022.009-.022.008-.022.002-.022-.004-.022-.008-.022-.01-.021-.01-.021-.011-.02-.012-.02-.013-.019-.014-.019-.014-.018-.014-.018-.015-.017-.016-.016-.017-.016-.017-.015-.018-.014-.019-.014-.019-.013-.02-.012-.02-.011-.02-.011-.02-.012-.019-.013-.018-.014-.018-.014-.018-.015-.017-.015-.017-.016-.016-.016-.017-.017-.016-.017-.015-.022-.008-.017-.006-.022-.004-.022-.003-.023-.002-.023v-.024s-.002-.023-.002-.023v-.023s-.002-.023-.002-.023v-.023s0-.023,0-.023v-.014s.002-.009.002-.009l.003-.023.004-.023.005-.022.004-.023.004-.023.005-.022.005-.023.004-.022.003-.023.004-.023v-.011s.003-.012.003-.012l.002-.023v-.023l-.003-.023-.006-.022-.008-.022-.009-.021-.01-.02-.012-.02-.013-.019-.014-.018-.015-.017-.017-.016-.018-.015-.018-.015-.019-.014-.019-.014-.017-.015-.013-.018-.011-.02-.009-.021-.008-.022-.007-.022v-.006s-.005-.016-.005-.016l-.004-.023-.005-.022-.007-.022-.008-.021-.007-.022-.004-.022-.003-.023-.002-.023v-.023s-.002-.023-.002-.023v-.023s0-.023,0-.023v-.023s.005-.023.005-.023l.006-.022.009-.022.012-.019.016-.015.02-.012.02-.013.018-.015.004-.004.014-.013.014-.018.008-.02.002-.023-.003-.024-.006-.022-.009-.021-.011-.02-.012-.02-.012-.019-.012-.02-.013-.019-.013-.019-.012-.019-.01-.021-.008-.021-.008-.022-.007-.021h0s-.007-.022-.007-.022l-.007-.022-.007-.022-.009-.021-.012-.019-.014-.018-.014-.018-.012-.02-.01-.02-.01-.021-.01-.02-.014-.025-.009-.015-.012-.02-.012-.02-.011-.02-.01-.021-.009-.021-.008-.021-.006-.022-.006-.023-.005-.023-.002-.023.002-.022.008-.021.011-.02.011-.021.009-.021.005-.022.002-.023v-.023s.002-.023.002-.023v-.023s.002-.023.002-.023v-.023s0-.023,0-.023v-.023s-.004-.023-.004-.023l-.004-.023-.004-.022-.005-.022-.005-.022-.006-.022-.007-.022-.007-.022-.007-.022-.007-.022-.005-.022-.005-.022-.005-.022-.005-.022-.004-.023-.004-.023-.003-.023-.002-.023-.002-.023v-.023s-.003-.023-.003-.023v-.023s-.003-.023-.003-.023l-.002-.023v-.018s-.001-.005-.001-.005v-.023s.003-.023.003-.023l.003-.023.004-.023.005-.023.007-.021.01-.019.015-.017.019-.014.019-.014.018-.015.018-.014.018-.014.018-.014.016-.016.014-.018.014-.019.013-.019.011-.02.01-.021.007-.021.005-.022.003-.025.002-.021.003-.023.003-.023.003-.023.003-.023.003-.022.003-.023.003-.023.003-.023.003-.023.003-.023.003-.023.003-.023.003-.023.002-.023v-.023s-.002-.022-.002-.022l-.007-.022-.01-.021-.01-.021-.007-.022-.003-.022-.002-.023v-.023s-.002-.023-.002-.023l-.002-.023-.003-.023-.003-.023-.002-.023v-.023s.002-.024.002-.024v-.023s0-.022,0-.022l-.007-.022-.01-.02-.012-.02-.013-.02-.014-.018-.016-.017-.014-.018-.009-.02-.008-.022-.006-.023-.003-.023v-.022s.005-.022.005-.022l.011-.022.015-.018.018-.012.023-.008.024-.003.022.002.022.007.021.01.021.01.02.012.019.012.02.011.021.011.021.011.021.01.021.007h.022s.024-.005.024-.005l.02-.012.012-.017.008-.022.004-.024.002-.024v-.023s-.003-.023-.003-.023l-.003-.022-.004-.023-.004-.023-.004-.023-.004-.023-.004-.023-.004-.023-.002-.023v-.023l.002-.023.003-.023.002-.023.002-.023.002-.023.003-.023.004-.023.006-.022.006-.022.005-.022.003-.023.002-.023v-.023s0-.023,0-.023l-.004-.022-.007-.022-.009-.021-.011-.02-.011-.02-.011-.02-.012-.02-.014-.018-.016-.016-.019-.012-.021-.01-.021-.01-.02-.01-.02-.01-.021-.01-.02-.01-.02-.011-.02-.011-.02-.012-.019-.013-.018-.014-.016-.016-.015-.018-.014-.019-.011-.02-.007-.021-.004-.027v-.02s.001-.023.001-.023l.005-.022.008-.022.011-.02.015-.016.019-.014.019-.013.016-.016.015-.017.015-.018.015-.017.016-.016.017-.016.015-.017.014-.018.013-.019.013-.018.014-.018.014-.018.014-.018.014-.018.015-.018.015-.018.015-.018.014-.018.014-.018.013-.019.012-.019.012-.02.012-.02.012-.02.013-.019.013-.019.013-.019.012-.02.01-.02.008-.021.005-.023.003-.023v-.023s0-.023,0-.023l-.002-.023-.003-.023-.003-.023-.003-.023-.003-.023-.004-.023-.005-.022-.007-.022-.01-.02-.012-.019-.013-.02-.013-.019-.013-.019-.014-.018-.014-.018-.013-.018-.011-.02-.01-.021-.01-.021-.012-.02-.015-.017-.019-.013-.018-.015-.014-.018-.011-.02-.038.005-.041.005-.04.005-.03-.003-.019-.013-.011-.02.008-.036.005-.019.005-.02.005-.02.005-.019.005-.02.005-.02.005-.02.004-.02.004-.02.003-.02v-.02s.004-.02.004-.02l.002-.009.002-.01.006-.019.007-.019.007-.019.005-.02.004-.02.006-.02.008-.018.012-.015.014-.014.015-.014.016-.013.021-.019.017-.016.015-.014.015-.013.016-.012.017-.011.018-.01.018-.01.017-.01.016-.012.015-.013.014-.015.012-.017.01-.018.008-.019.007-.02.004-.02v-.02s-.002-.02-.002-.02l-.005-.02-.006-.019-.008-.019-.009-.018-.009-.018-.008-.018-.008-.019-.007-.019-.004-.02-.003-.02v-.02s0-.02,0-.02l.003-.02.005-.02.006-.02.007-.019.008-.019.008-.018.008-.019.009-.018.008-.019.008-.019.008-.019.008-.019.007-.019.004-.02v-.02s-.002-.02-.002-.02l-.006-.02-.008-.018-.012-.017-.013-.017-.009-.018-.003-.019v-.02s-.001-.02-.001-.02v-.02s.003-.021.003-.021l.002-.02.003-.02.003-.02v-.003s.004-.017.004-.017l.005-.02.005-.02.005-.02.005-.019.004-.02.002-.02v-.02s.001-.02.001-.02v-.02s-.003-.02-.003-.02l-.004-.02-.005-.02-.006-.019-.006-.02-.006-.019-.005-.02-.007-.019-.007-.02-.006-.019-.004-.02v-.02s.002-.02.002-.02l.004-.02.005-.02.006-.02.007-.019.008-.019.008-.019.005-.009.005-.01.011-.016.013-.014.018-.007h.021s.021-.001.021-.001h.02s.02.004.02.004l.02.003.02.004.02.005.02.005.019.004.02.002h.02s.02-.002.02-.002l.02-.004.019-.005.019-.007.018-.009.017-.01.016-.012.014-.014.014-.015.013-.015.013-.016.013-.016.012-.016.011-.017.011-.017.012-.016.013-.015.014-.015.014-.014.016-.012.017-.01.019-.006.02-.003.02-.002.02-.002.02-.002h.02s.02,0,.02,0l.02.002.02.004.02.005.019.005.02.005.019.007.019.007.017.01.016.013.017.01.019.004h.002s.018.002.018.002h.02s.02,0,.02,0h.02s.02-.003.02-.003l.02-.003.02-.003.02-.005.02-.005.019-.005.02-.005.019-.005.02-.004.02-.005.02-.004.02-.005.019-.005.019-.006.019-.007h.003s.016-.007.016-.007l.019-.007.019-.007.021-.008.016-.007.018-.008.018-.008.018-.008.018-.009.018-.009.018-.01.017-.01.017-.011.016-.012.016-.012.016-.012.015-.013.015-.014.014-.014.014-.015.013-.015.012-.016.011-.017.011-.017.012-.016.014-.014.014-.014.014-.014.014-.015.014-.015.014-.015.014-.015.013-.015.014-.015.014-.014.016-.012.017-.01.005-.003.012-.006.018-.009.018-.009.018-.009.018-.01.018-.01.018-.01.018-.009.018-.01.018-.01.018-.01.018-.009.017-.01.017-.011.017-.011.017-.012.016-.012.015-.013.014-.014.012-.016.011-.018.014-.037v-.013s0-.007,0-.007l-.004-.02-.004-.02-.002-.02-.003-.02-.007-.018-.012-.017-.013-.016-.011-.017-.007-.018-.005-.019-.004-.02-.003-.02-.002-.02v-.02s0-.021,0-.021v-.021s.005-.02.005-.02l.006-.019.01-.017.014-.015.016-.014.015-.013.016-.012.016-.011.017-.011.017-.01.005-.003.013-.008.017-.01.018-.009.018-.008.018-.008.019-.007.019-.006.019-.004.02-.002h.02s.02,0,.02,0h.02s.02-.002.02-.002l.02-.002.02-.003.02-.003.02-.003.02-.004.019-.004.019-.005.019-.007.019-.008.018-.009.017-.01.017-.011.016-.012.015-.013.015-.014.014-.015.013-.016.012-.017.009-.018.005-.018v-.02s-.001-.021-.001-.021v-.02l.005-.019.007-.019.008-.018.01-.018.01-.017.012-.016.013-.016.012-.016.011-.017.011-.017.011-.017.012-.016.014-.014.015-.013.016-.013.015-.013.014-.014.012-.016.012-.017.012-.017.012-.016.014-.013.018-.008.02-.004.019-.006.019-.007.019-.006.019-.005.02-.003.02-.002.02-.003.02-.003h.008s.011-.004.011-.004l.019-.006.019-.007.019-.008.016-.011.014-.014.013-.016.011-.017.011-.017.01-.018.007-.018.002-.009.003-.011.005-.02.007-.019.009-.018.01-.017.011-.017.011-.017.01-.018.008-.018.007-.019.007-.019.007-.019.006-.019.006-.019.005-.02.005-.02.005-.02.006-.019.007-.019.008-.018.009-.018.009-.018.009-.018.008-.019.008-.018.008-.019.002-.005v-.003s.013-.029.013-.029l.007-.019.006-.019.007-.022.005-.016.006-.02.006-.019.005-.02.005-.02.005-.02.004-.02.004-.02.003-.02.004-.02.003-.02v-.02s0-.02,0-.02l-.003-.02-.005-.02-.006-.02-.006-.019-.008-.019-.008-.019-.006-.019-.005-.02-.004-.02-.002-.021v-.02s.006-.019.006-.019l.009-.018.012-.017.012-.016.012-.017.013-.016.015-.013.017-.008.02-.004.019-.006.018-.009.018-.01.018-.009.019-.005h.006s.014-.003.014-.003l.02-.002.02-.003.019-.005.018-.008.018-.009.017-.011.015-.013.015-.014.016-.012.018-.009.019-.007.019-.008.018-.009.016-.012.015-.014.017-.018.01-.011.012-.016.012-.016.011-.017.01-.017.01-.018.01-.018.009-.018.008-.018.008-.019.007-.019.007-.019.006-.019.005-.02.004-.02.003-.02.002-.02v-.02s0-.02,0-.02v-.023s-.001-.018-.001-.018l-.003-.021-.003-.021v-.02s.002-.019.002-.019l.008-.017.014-.015.016-.014.014-.015.012-.017.011-.017.01-.017.009-.018.007-.019.005-.019.004-.02.003-.02.004-.02.005-.02.007-.019h0s.007-.019.007-.019l.007-.019.006-.019.005-.02.005-.02.006-.019.007-.019.007-.019.007-.019.008-.018.008-.018.008-.018.008-.018.008-.019.008-.019.009-.018.01-.018.01-.017.012-.015.008-.008.006-.006.016-.012.017-.011.018-.01.018-.009.019-.007.019-.006.019-.005.019-.007.019-.006.02-.006.018-.008.016-.01.014-.014.012-.016.011-.017.011-.017.012-.016.012-.016.013-.015.013-.015.014-.015.014-.015.013-.015.013-.017.013-.016.013-.016.012-.016.012-.016.011-.016.012-.016.011-.017.011-.017.011-.017.011-.017.011-.017.01-.017.01-.017.01-.017.009-.018.008-.018.003-.02.003-.021.005-.02.009-.018.012-.016.013-.016.012-.016.012-.016.012-.016.011-.016.01-.017.01-.018.009-.018.008-.018.009-.018.009-.018.009-.018.01-.018.01-.017.01-.017.01-.017.011-.017.011-.017.012-.016.012-.016.013-.015.014-.014.016-.012.017-.01.016-.012.014-.014.014-.015.012-.016.011-.017.009-.018.009-.018.009-.018.01-.017.011-.017.013-.019.009-.013v-.002s.012-.017.012-.017l.01-.017.01-.018.01-.017.01-.017.012-.016.014-.014.015-.014.013-.015.01-.017.009-.018.008-.019.007-.019.006-.019.005-.02.006-.019.006-.02.007-.019.01-.017.012-.015.014-.014.015-.014.014-.014.013-.015.013-.016.012-.016.011-.017.009-.018.008-.018.008-.019.008-.018.007-.019.007-.019.006-.019.005-.02.004-.02v-.007s.003-.012.003-.012l.003-.02.002-.02v-.041s.002-.02.002-.02l.002-.02.002-.02.003-.02.005-.02.007-.02.007-.02.008-.019.01-.017.012-.014.017-.009.021-.005h.025s.015,0,.015,0l.02.005.02.002.019-.002.02-.004.019-.006.019-.007.018-.008.017-.01.017-.012.016-.013.015-.013.015-.013.015-.014.014-.015.013-.015.011-.016.01-.018.008-.019.006-.02.003-.02-.002-.019-.007-.019-.008-.02-.005-.02v-.02s-.002-.02-.002-.02v-.021s.004-.02.004-.02l.005-.019.008-.018.011-.017.012-.017.011-.017.009-.018.007-.019.007-.019.008-.019.009-.018.01-.017.012-.016.012-.016.012-.016.012-.016.012-.016.01-.014.002-.003.012-.016.011-.017.01-.017.009-.018.009-.019.009-.018.01-.017.012-.016.029-.028.015-.013.015-.014.013-.015.012-.016.012-.016.002-.003.01-.013.012-.017.011-.017.01-.018.008-.018.007-.018.004-.019v-.021s0-.021,0-.021l-.002-.021v-.008s-.003-.012-.003-.012l-.005-.02-.007-.019-.009-.019-.011-.017-.013-.014-.015-.012-.016-.011-.017-.011-.017-.011-.016-.012-.016-.012-.016-.012-.016-.012-.016-.013-.015-.013-.014-.014-.013-.015-.011-.016-.01-.018-.008-.019-.008-.019-.007-.019-.008-.019-.008-.019-.008-.019-.006-.019-.003-.019v-.02s.004-.02.004-.02l.005-.02.005-.02.006-.019.006-.02.007-.019.007-.019.008-.018.01-.018.023-.033.011-.017.01-.017.009-.018.008-.019.008-.018.008-.018.008-.018.01-.018.01-.018.008-.018.004-.019.002-.02v-.02s0-.02,0-.02v-.02s-.002-.02-.002-.02v-.02s-.003-.02-.003-.02l-.002-.02-.002-.02-.002-.02-.002-.02v-.02s-.002-.02-.002-.02l-.002-.02-.002-.02-.003-.02-.003-.02-.003-.02v-.02s-.003-.02-.003-.02l-.002-.02-.004-.02-.006-.019-.007-.019-.007-.019-.006-.019-.006-.019-.005-.02-.005-.019-.005-.02-.004-.02-.004-.02-.003-.02-.003-.02-.003-.02-.004-.02-.004-.02-.005-.02-.006-.019-.007-.019-.007-.019-.008-.019-.007-.018-.007-.019-.007-.019-.006-.019-.004-.02-.002-.02-.002-.02v-.02s-.003-.02-.003-.02v-.02s-.003-.021-.003-.021l-.004-.02-.01-.015-.017-.012-.018-.01-.017-.01-.018-.01-.017-.01-.016-.012-.014-.013-.014-.014-.013-.015-.013-.015-.013-.016-.014-.015-.012-.016-.01-.017-.005-.018v-.024s0-.018,0-.018l.002-.02.002-.02.003-.021.005-.02.006-.019.009-.018.012-.017.014-.015.015-.014.016-.012.017-.01.017-.01.016-.012.016-.012.015-.013.014-.014.013-.015.013-.016.012-.016.012-.016.013-.016.014-.015.014-.015.013-.015.012-.016.01-.017.007-.019.031.018.019.007.019.006.02.005.02.005.019.005.018.007.017.011.016.013.014.015.012.016.007.018.004.019.002.02v.021s.001.021.001.021v.02s-.001.02-.001.02l-.002.021.002.02.006.019.008.018.009.018.009.018.009.018.008.019.01.039.004.02.005.019.007.019.007.02.008.02.01.018.013.013.016.01.019.009.02.007.02.003h.019l.017-.006.017-.01.016-.014.014-.017.012-.017.004-.007.006-.01.007-.019.006-.02.005-.02.004-.02.004-.02.006-.019.006-.02.005-.019.006-.02.006-.019.006-.02.006-.02.006-.019.006-.02.005-.019.005-.02.003-.02v-.02s0-.021,0-.021v-.02s0-.02,0-.02l.003-.02.003-.02.005-.021.005-.02.007-.018.011-.014h.022s0,0,0,0l.006-.016v-.022s-.002-.022-.002-.022l.004-.018h.001s.012-.013.012-.013l.02-.01.021-.006.019-.002.01.013.006.023h.015s.019-.008.019-.008l.02-.01.019-.004.019.002.019.005.019.007.019.007.018.008.018.009.018.007.019.002h.02s.02-.003.02-.003l.02-.003.02-.002.02-.003.02-.002.02-.003.02-.002h.02s.02-.002.02-.002h.04s.019-.005.019-.005l.014-.014.014-.014h.02s.021.004.021.004l.014-.009.007-.021.007-.021.012-.008.019.009.02.006.018-.008.018-.008.02.004h.019s.015-.012.015-.012l.008-.008.007-.006h.019s.02,0,.02,0l.019-.007.018-.011.018-.011.018-.007.018.002.017.013.018.012.018.003.019-.007.038-.015.018.003.017.01.017.012.018.009.019.006.019.005.019.004.02.004.019.003.02.003.02.002h.02s.02-.001.02-.001l.02-.004h.019s.018.006.018.006l.017.011.016.013.014.014.013.016.012.016.013.016.012.016.013.015.014.015.015.014.017.009.019.003h.02s.02-.003.02-.003l.02-.002.02-.004h.019s.017.006.017.006l.016.012.015.014.015.014.016.012.018.009.019.005.02.003.02.002.02.002h.02s.02,0,.02,0l.02-.003.019-.008.019-.009.007-.002.012-.003.018.003.018.008.017.011.018.011.037.014.021.004h.021s.019-.002.019-.002l.016-.008.013-.014.011-.017.01-.019.011-.018.013-.015.015-.012.017-.01.018-.009.017-.009.018-.008.017-.009.012-.016.009-.019.008-.02.01-.018.013-.013.016-.007.019-.002h.02s.021.003.021.003h.021s.02-.002.02-.002l.018-.007.017-.009.016-.011.017-.012.016-.012.005-.004.011-.007.018-.009.018-.008.018-.008.018-.008.018-.008.018-.009.017-.01.017-.01.017-.01.016-.011.016-.012.016-.012.016-.012.015-.013.016-.012.016-.013.007-.005.01-.007.018-.01.017-.011.014-.013.007-.016-.004-.042-.005-.02-.009-.02-.007-.02.004-.016.013-.014.018-.012.017-.013.013-.015.009-.019.008-.02.009-.018.012-.012.018-.004.02.002.021.003h.02s.02-.005.02-.005l.019-.006.018-.008.016-.012.015-.014.013-.016.01-.017.003-.019v-.021s0-.02,0-.02l.006-.019.01-.019.013-.017.015-.012.018-.003.021.005.02.006.018.008.018.009.019.006h.019s.02,0,.02,0l.02-.003.019-.005.018-.007.017-.01.016-.013.015-.014.014-.014.012-.016.011-.016.009-.019.008-.02.014-.01.019-.005.02-.003.02-.003.02-.003.02-.003.02-.002h.02s.02,0,.02,0h.02s.02,0,.02,0l.02-.005.019-.007.019-.006h.018s.018.01.018.01l.017.013.018.003.02-.009.018-.003.016.01.015.014.014.015.016.013.017.01.017.009.019.008.018.008.018.009.017.01.017.01.016.01.018.01.018.008.019.005h.02s.02.003.02.003l.017.008.013.017.013.016.017.006h.019s.02-.001.02-.001l.02-.003.02-.003.02-.002.02-.002.02-.003h.013s.007-.002.007-.002h.02s.02,0,.02,0l.012-.013.009-.019.013-.015.018-.01.019-.004.02.005.019.008.017-.003.014-.016.015-.009.019.011.016-.008.016-.012.019.003.02.006h.02s.02.001.02.001l.02-.003.017-.008.015-.014.016-.011.02-.004.006-.019.01-.015h.021s.018-.007.018-.007l.011-.016.009-.019.009-.014.002-.004.014-.015h.007s.01.002.01.002l.019.008.019.008.019.003.02-.003.019-.008.018-.011h.016s.014.019.014.019l.015.008.017-.009.018-.013.017-.009.016.006.014.017.016.011h.02s.02-.005.02-.005l.017-.01.016-.012.015-.014.014-.014.014-.014.013-.016.013-.015.014-.014.015-.014.015-.013.016-.012.016-.011.017-.011.016-.011.016-.012.011-.009.021-.014.018-.007.02-.003.019-.003.019-.005.016-.01.015-.013.016-.013.017-.009.019-.007.019-.007.019-.008.02-.008.016-.01.006-.016-.006-.023.007-.015.019-.008.021-.005.019-.004h.02l.018.009.018.009.018-.002.019-.007.019-.006.02-.004.02-.002.019.003.015.011.014.015.013.017.012.016.011.017.011.017.013.016.015.016.016.008h.019s.02-.005.02-.005l.02-.006.019-.006.019-.006.019-.006.018-.007.018-.009.017-.01.017-.01.018-.009.018-.009.007-.003.011-.006.018-.008.019-.01.019-.008.035.007.016.014.013.016.011.016.01.018.009.018.011.017.012.016.013.016.014.014.014.015.014.014.016.012.018.004.021-.002.019.003.016.012.015.014.016.01h.019s.02-.005.02-.005l.02-.006h.019s.018.007.018.007l.028.014.038.016.036.017.028.023.014.014.014.015.014.015.015.013.016.012.017.01.02.008.02.005.02.002.017-.004.014-.013.013-.017.014-.016.016-.01.02-.007.021-.004h.019s.016.009.016.009l.015.012.014.015.014.016.014.015.014.014.013.015.014.015.014.015.014.014.015.013.016.011.017.01.018.008.018.007.019.007.019.007.019.006.019.007.018.007.018.009.018.009.017.01.017.01.017.01.017.01.017.009.018.008.018.008.018.007.018.008.018.008.018.009.017.011.016.012.015.013.015.013.014.012.017.013.016.01.018.008.018.006.019.004.02.003.02.003.02.002.02.003.02.005.02.005.02.004.02.003h.019s.018-.001.018-.001l.017-.007.016-.01.015-.013.015-.014.015-.015.015-.014.016-.012.016-.012.017-.011.016-.011.017-.01.017-.01.018-.008.019-.008.019-.007.02-.004h.019s.018.003.018.003l.02.005.02.007h.003s.015.009.015.009l.018.01.016.012.014.012.008.015h0s.005.021.005.021l.005.021.006.02.01.017.013.015.015.014.016.013.016.011.017.01.019.007.019.006.019.006.018.008.016.01.012.012.015.018.013.015.015.013.017.01.018.009.019.008.019.008.018.009.016.01.015.013.012.015.011.018.009.019.007.019.005.019.002.02v.021s0,.021,0,.021l.002.02v.002s.006.017.006.017l.008.019.01.018v.002s.011.016.011.016l.013.016.014.014.017.01.019.009.018.01.014.013.011.017.009.018.008.019.007.02.007.019.006.019.005.02.005.02.006.019.007.019.01.017.014.014.015.014.014.014.012.016.011.017.01.017.01.017.011.017.011.016.012.016.012.016.012.016.012.016.012.016.012.013.016.015.016.012.016.011.017.011.017.01.017.01.017.01.017.01.017.01.017.01.017.01.018.01.018.009.018.008.018.008.018.008.019.007.018.007.014.005.005.002.019.007.021.005.022.004.022.004.019.005.015.009.01.012.003.017-.004.043-.004.022-.003.021v.02s-.002.02-.002.02v.02s-.003.02-.003.02l-.002.02-.003.02-.004.02-.004.02-.004.02-.002.02v.02l.002.02.004.02.006.02.008.018.009.018.01.018.009.018.008.019.007.019.006.02.006.019.006.019.007.018.008.02.009.019.008.019.008.019.006.019.003.019v.019s-.007.019-.007.019l-.008.019-.009.019-.008.019-.003.01-.003.01-.005.02-.004.02-.003.02v.02s0,.021,0,.021l.002.02.004.02.006.019.008.018.009.018.01.018.011.017.012.016.012.015.014.014.016.012.003.003.013.009.017.011.016.012.016.012.017.012.016.013.012.014.008.018.005.02.003.02.002.021.003.021.005.019.008.018.01.017.011.017.012.016.012.016.013.015.014.015.014.014.014.014.015.012.016.011.017.01.018.009.017.008.019.01.018.01.017.01.016.012.015.014.014.014.013.015.013.015.013.016.013.015.014.014.015.013.016.012.016.011.017.01.017.01.018.009.018.009.018.008.018.008.018.008.018.007.019.007.019.006.019.007.019.006.019.007.019.007.018.008.018.008.018.008.018.008.018.009.017.01.016.011.016.012.014.014.013.015.012.016.012.016.013.015.014.015.014.014.014.015.014.015.015.014.015.012.016.01.018.006.02.004.02.003.02.002.02.005.018.007.017.01.015.012.015.014.014.015.014.014.015.014.016.012.016.012.016.012.016.012.015.014.012.015.011.016.01.018.009.019.008.019.007.019.006.02.005.019.004.02.003.02.003.02.002.021.003.02.003.02.004.02.005.019.006.019.01.016.082.086.009.055.022.132-.027.176-.029.095.007.051.029.075.008.022v.092s-.02.084-.02.084l-.074.175-.01.039-.013.052-.007.024-.045.084-.06.046-.048.012-.07-.006-.072-.039-.035-.019-.023-.023-.126-.009-.054.021-.03.012-.044.035-.015.089.016.065.003.011.013.057.066.074.028.052.018.092.109.221.07.204.009.057-.029.138-.014.067-.225.427-.048.066-.015.045.016.09.002.009.01.058.01.132.005.061-.008.035-.058.26-.077.25-.067.22-.042.076-.021.022-.048.051-.117.124-.034.037-.01.023-.011.026-.021.089-.035.122-.013.102.013.023.005.021.045.093.003.006v.046s-.004.005-.004.005l-.029.059h0s-.02.031-.02.031l-.03.045-.034.026-.208.076-.169.107-.045.045-.109.148v.002s-.002.003-.002.003l-.034.109-.002.006.013.053.006.01.005.01.02.037.052.061.024.018.003.002.111.024.049.042.076.048.004.003.101.063.003.002.195.36v.003s.003.003.003.003l.021.054.003.009.006.044-.124.372-.016.107-.055.185-.021.024-.035.13-.016.058-.005.02h0s-.044.07-.044.07l-.012.034-.194.564-.019.025-.008.01-.055.121-.02.045-.043.067-.12.074-.099-.008-.084.007-.121.029-.011.003-.169.067-.07.04-.018.012-.044.031-.021.034-.008.014-.032.112-.002.006-.007.098.033.149.132.136.003.004.058.086.079.25.003.021.014.09-.01.061-.029.031h-.002s-.084.06-.084.06l-.006.012h.195l.048.178v.118s-.023.099-.023.099l-.083.088-.028.047-.072.213-.033.16-.044.215v.089s.047.105.047.105l.077.107.051.07.124.136.045.061.004.073.029.059.046.055.016.02.06.094.043.142.004.14-.031.109-.039.063-.034.113-.048.093-.079.076-.104.083-.029.003-.09.05-.01.006-.065.077-.016.02-.042.118-.032.169-.04.213-.007.036-.002.078.003.019.006.039.012.077.07.42.072.266.014.082.016.092.054.129.024.027.015.038.014.038h0s.016.094.016.094v.115s.026.126.026.126l.012.082v.223s-.009.175-.009.175l.004.037.019.177.011.147.045.209.054.13v.044s.059.344.059.344l.008.133-.024.136v.103s.048.118.048.118l.006.059-.01.034-.047.211-.043.333-.038.103-.015.041-.006.004-.018.012-.017.014-.017.012-.018.006h-.022l.003.066-.015.071-.015.028-.011.02-.146.139-.123.051-.061.013-.064.047-.149-.015-.011-.015.012-.021-.126-.097-.043-.019-.064-.009h-.016s-.093.009-.093.009l-.108.037-.057.003-.214-.027-.094.024-.057-.002-.096-.023h-.135l-.03.02-.016.073.005.029-.019.021-.053-.014-.039.02v.036s.051.129.051.129l.044.014.037.027.02.033.002.03-.025.048-.037.036.006.02-.019.025-.011.077-.026.069.032.443-.09.222.002.072.024.063.038.076.067.208-.002.046-.018.045-.071.084-.069.038-.097.077-.019.034v.041l-.018.04-.009.019-.07.1-.096.186-.087.124-.098.238-.061.094-.01.056Z"/><path class="cls-3" d="M17.928,11.786c-1.112-.636-2.138-1.406-3.055-2.288l-.103.285c-.044.123-.181.188-.304.143l-1.317-.473c-.123-.044-.188-.181-.144-.304l.441-1.225c-.174-.221-.343-.447-.505-.678l-1.002-.36c-.123-.044-.187-.181-.143-.304l.266-.74c-.786-1.419-1.355-2.975-1.663-4.623l-.013.007-.011.008-.006.004-.016.012-.017.012-.016.011-.017.009-.018.007-.02.002h-.021s-.021-.002-.021-.002h-.02s-.019.001-.019.001l-.016.007-.013.013-.01.018-.008.02-.009.019-.012.016-.017.009-.018.008-.017.009-.018.01-.017.01-.015.012-.013.015-.011.018-.01.019-.011.017-.013.014-.016.008-.019.003h-.021s-.021-.005-.021-.005l-.037-.014-.018-.011-.018-.011-.017-.008-.018-.003-.012.003-.007.002-.019.009-.019.008-.02.003h-.02s-.02,0-.02,0l-.02-.002-.02-.002-.02-.003-.019-.005-.018-.009-.016-.012-.015-.014-.015-.014-.016-.012-.018-.007h-.019s-.02.005-.02.005l-.02.002-.02.002h-.02s-.019-.002-.019-.002l-.017-.009-.015-.014-.014-.015-.013-.015-.012-.016-.013-.016-.012-.016-.013-.016-.014-.014-.016-.013-.017-.011-.018-.007h-.019s-.02.005-.02.005l-.02.003h-.02s-.02-.003-.02-.003l-.02-.003-.019-.003-.02-.004-.019-.004-.019-.005-.019-.006-.018-.009-.017-.012-.017-.01-.018-.003-.038.015-.019.007-.018-.003-.018-.012-.017-.012-.018-.002-.018.007-.018.011-.018.011-.019.008h-.02s-.019,0-.019,0l-.007.006-.008.008-.015.013h-.019s-.02-.005-.02-.005l-.018.008-.018.008-.02-.006-.019-.009-.012.008-.007.021-.007.021-.014.009-.021-.003h-.02s-.014.013-.014.013l-.014.014-.019.004h-.02s-.02.001-.02.001h-.02s-.02.002-.02.002l-.02.002-.02.003-.02.002-.02.003-.02.002-.02.003-.02.002h-.02s-.019-.001-.019-.001l-.018-.007-.018-.009-.018-.008-.019-.007-.019-.007-.019-.005-.019-.002-.019.004-.02.01-.019.009h-.015s-.006-.025-.006-.025l-.01-.013-.019.002-.021.006-.02.01-.012.011h-.001s-.004.02-.004.02v.023s.002.018.002.018v.004l-.006.015h-.023s-.011.014-.011.014l-.007.018-.005.02-.005.021-.003.02-.003.02v.02s0,.02,0,.02v.021s0,.02,0,.02l-.003.02-.005.02-.005.019-.006.02-.006.019-.006.019-.006.02-.006.019-.006.02-.005.019-.006.02-.006.019-.004.02-.004.02-.005.02-.006.02-.007.018-.006.01-.004.007-.012.017-.014.017-.016.014-.017.01-.017.006h-.019l-.02-.003-.02-.007-.019-.009-.016-.01-.013-.013-.01-.018-.008-.02-.007-.02-.007-.02-.005-.019-.005-.02-.01-.039-.008-.019-.009-.018-.009-.018-.009-.018-.008-.018-.006-.019-.002-.02.002-.02.002-.02v-.02s-.001-.021-.001-.021v-.021s-.003-.02-.003-.02l-.004-.019-.007-.018-.012-.016-.014-.015-.016-.013-.017-.011-.018-.007-.019-.005-.02-.005-.02-.005-.019-.006-.019-.007-.031-.018-.007.019-.01.017-.012.016-.013.015-.014.015-.013.015-.013.015-.012.016-.012.016-.013.016-.013.015-.014.014-.015.013-.016.012-.016.012-.017.01-.017.01-.016.012-.015.014-.014.015-.012.017-.009.018-.006.019-.005.02-.003.021-.002.02-.002.02v.018s0,.024,0,.024l.005.018.01.017.012.016.014.015.013.016.013.015.013.015.014.014.014.013.016.012.017.01.018.01.017.01.018.01.017.012.01.015.004.02v.021s.003.02.003.02l.002.02v.02s.003.02.003.02l.002.02.004.02.006.019.007.019.007.019.007.019.008.018.007.019.007.019.006.019.005.02.004.02.004.02.003.02.003.02.003.02.004.02.004.02.005.02.005.019.005.02.006.019.006.019.007.019.007.019.006.019.004.02.002.02v.02s.003.02.003.02l.003.02.003.02.003.02.002.02.002.02v.02s.002.02.002.02l.002.02.002.02.002.02.002.02.002.02v.02s.002.02.002.02v.02s.001.021.001.021v.02s-.002.02-.002.02l-.004.019-.008.018-.01.018-.01.018-.008.018-.008.018-.008.018-.008.019-.009.018-.01.017-.012.017-.023.033-.01.018-.008.018-.007.019-.007.019-.006.02-.006.019-.005.02-.005.02-.003.02v.02s.002.019.002.019l.006.019.008.019.008.019.008.019.007.019.008.019.008.019.01.018.011.016.013.015.014.014.015.013.016.013.016.012.016.012.016.012.016.012.017.011.017.011.016.011.015.012.013.014.011.017.009.019.007.019.005.02.002.012v.008s.003.021.003.021v.021s0,.021,0,.021l-.004.019-.007.018-.008.018-.01.018-.011.017-.012.017-.01.013-.002.003-.012.016-.012.016-.013.015-.015.014-.015.013-.029.028-.012.016-.01.017-.009.018-.009.019-.009.018-.01.017-.011.017-.012.016-.002.003-.01.014-.012.016-.012.016-.012.016-.012.016-.012.016-.01.017-.009.018-.008.019-.007.019-.007.019-.009.018-.011.017-.012.016-.011.017-.008.018-.005.019-.003.02v.021s0,.02,0,.02v.02s.006.02.006.02l.008.02.007.019.002.019-.003.02-.006.02-.008.019-.01.018-.011.016-.013.015-.014.014-.015.014-.015.013-.015.013-.016.013-.016.012-.017.01-.018.008-.019.007-.019.006-.02.004-.019.002-.02-.002-.02-.005-.015-.002h-.025s-.021.006-.021.006l-.017.009-.012.014-.01.017-.008.019-.007.02-.007.02-.005.02-.003.02-.002.02-.002.02v.02s-.002.02-.002.02v.021l-.002.02-.003.02-.002.012v.007s-.005.02-.005.02l-.005.02-.006.019-.007.019-.007.019-.008.018-.008.019-.008.018-.009.018-.011.017-.012.016-.013.016-.013.015-.014.014-.015.014-.014.014-.012.015-.01.017-.007.019-.006.02-.006.019-.005.02-.006.019-.007.019-.008.019-.009.018-.01.017-.013.015-.015.014-.014.014-.012.016-.01.017-.01.017-.01.018-.01.017-.011.017v.002s-.01.013-.01.013l-.013.019-.011.017-.011.017-.009.018-.009.018-.009.018-.011.017-.012.016-.014.015-.014.014-.016.012-.017.01-.016.012-.014.014-.013.016-.012.016-.012.016-.011.017-.011.017-.01.017-.007.011c1.321,5.392,5.473,9.673,10.791,11.176l.025-.135.032-.169.042-.118.016-.02.065-.077.01-.006.09-.05.028-.003.104-.083.079-.076.048-.093.034-.113.039-.063.031-.109-.004-.14-.043-.142-.06-.094-.016-.02-.046-.055-.029-.059-.004-.073-.045-.061-.124-.136-.051-.07-.077-.106-.045-.105v-.089s.043-.215.043-.215l.033-.161.072-.212.028-.047.083-.088.023-.099v-.118s-.049-.178-.049-.178h-.195l.006-.012.084-.059h.001s.029-.032.029-.032l.01-.061-.014-.09-.003-.021-.079-.25-.058-.086-.004-.004-.132-.136-.033-.149.007-.098.002-.006.032-.112.008-.014.021-.033.044-.031.018-.012.07-.04.169-.068.011-.003.121-.029.084-.007.099.008.12-.074.043-.067.02-.045.055-.121.008-.01.019-.025.194-.563.012-.034.045-.07.005-.02.012-.044ZM10.69,8.568c.123.044.26-.02.304-.143l.474-1.317c.044-.123-.02-.26-.143-.304l-1.317-.473c-.123-.044-.26.02-.304.143l-.474,1.317c-.044.123.02.26.143.304l1.317.473ZM12.534,9.371l-1.317-.473c-.123-.044-.26.02-.304.143l-.473,1.317c-.044.123.02.26.143.304l1.317.473c.123.044.26-.02.304-.143l.473-1.317c.044-.123-.021-.26-.144-.304Z"/><path class="cls-2" d="M16.764,17.589c-5.318-1.503-9.47-5.784-10.791-11.176l-.004.006-.01.017-.01.018-.009.018-.009.018-.009.018-.008.018-.009.018-.01.018-.01.017-.011.016-.012.016-.012.016-.012.016-.013.016-.012.016-.009.018-.005.02-.003.021-.003.02-.008.018-.01.018-.01.017-.01.017-.01.017-.011.017-.011.017-.011.016-.011.017-.011.017-.011.016-.012.016-.012.016-.012.016-.013.016-.013.016-.013.016-.013.015-.014.015-.014.015-.013.015-.013.015-.012.016-.012.017-.011.017-.011.017-.012.016-.014.014-.016.01-.018.008-.02.006-.019.006-.019.007-.019.005-.019.006-.019.007-.018.009-.018.01-.017.011-.016.012-.006.006-.008.008-.012.015-.01.017-.01.018-.009.018-.008.019-.008.019-.008.018-.008.018-.008.018-.008.018-.008.019-.007.019-.007.019-.006.019-.005.02-.005.02-.006.019-.007.019-.007.017h0s-.007.02-.007.02l-.005.02-.004.02-.003.02-.004.02-.005.02-.007.019-.009.018-.01.017-.011.017-.012.017-.014.015-.016.014-.014.015-.008.016-.003.019v.02s.004.021.004.021l.003.021v.018s.001.003.001.003v.04s0,.02,0,.02l-.002.02-.003.02-.004.02-.005.02-.006.019-.007.019-.007.019-.008.018-.008.018-.009.018-.01.018-.01.017-.01.017-.011.017-.012.016-.012.016-.01.011-.017.018-.015.014-.016.012-.018.009-.019.008-.019.007-.018.009-.016.012-.015.014-.015.013-.017.011-.018.009-.018.008-.019.005-.02.003-.02.002-.014.002h-.006s-.019.006-.019.006l-.018.009-.018.01-.018.009-.019.006-.02.004-.017.008-.015.013-.013.016-.012.017-.012.016-.012.017-.009.018-.005.019v.02s0,.021,0,.021l.004.02.005.02.007.019.007.019.008.019.006.019.006.02.005.02.003.02v.02s0,.02,0,.02l-.003.02-.004.02-.003.02-.004.02-.004.02-.005.02-.005.02-.005.02-.006.019-.006.019-.005.016-.007.022-.006.019-.007.019-.011.029v.003s-.003.005-.003.005l-.008.019-.008.018-.008.018-.009.018-.009.018-.009.018-.008.018-.007.019-.005.019-.005.02-.005.02-.005.02-.006.019-.006.019-.007.019-.007.019-.007.019-.008.018-.01.018-.011.017-.011.017-.01.017-.009.018-.007.019-.005.02-.003.011-.002.009-.007.018-.01.018-.01.017-.012.017-.013.016-.014.014-.017.011-.019.008-.019.007-.019.006-.011.002h-.008s-.02.005-.02.005l-.02.003-.02.002-.02.003-.019.005-.019.006-.019.007-.019.006-.02.005-.018.008-.014.013-.012.016-.012.017-.012.017-.012.016-.014.014-.015.013-.016.013-.015.013-.014.014-.012.016-.011.017-.011.017-.011.017-.012.016-.013.016-.012.016-.01.017-.01.018-.009.018-.007.019-.004.019v.02s.001.021.001.021v.02s-.006.018-.006.018l-.009.018-.012.017-.013.016-.014.015-.015.014-.015.013-.016.012-.017.011-.017.01-.018.009-.018.008-.019.006-.019.005-.02.004-.02.004-.02.003-.02.003-.02.003-.02.002-.02.002h-.02s-.02,0-.02,0h-.02s-.02.003-.02.003l-.019.004-.019.006-.019.007-.019.008-.018.008-.018.009-.017.01-.013.008-.004.003-.017.01-.017.011-.017.011-.016.012-.015.013-.016.014-.014.015-.01.017-.006.019-.003.02v.021s-.001.021-.001.021v.02s.003.021.003.021l.003.02.004.02.005.02.007.018.011.017.013.016.012.017.007.018.003.02.002.02.004.02.004.02v.02s-.015.037-.015.037l-.011.018-.012.016-.014.014-.015.013-.016.012-.016.012-.017.011-.017.011-.017.01-.018.009-.018.01-.018.009-.018.01-.018.009-.018.01-.018.009-.017.01-.018.009-.018.009-.018.009-.012.006-.005.003-.017.01-.016.012-.014.014-.014.015-.013.015-.014.015-.014.015-.014.015-.014.015-.014.014-.014.014-.014.015-.012.016-.011.017-.011.017-.012.016-.013.015-.014.015-.014.014-.015.014-.015.013-.016.012-.016.012-.016.012-.017.011-.017.01-.018.01-.018.009-.018.009-.018.008-.018.008-.018.008-.016.007-.021.008-.019.007-.018.007-.016.006h-.003s-.019.008-.019.008l-.019.006-.019.005-.02.005-.02.004-.02.005-.02.004h-.003c.709,3.607,2.673,6.762,5.418,8.994-.007-.115.006-.232.042-.348l.324-1.052-1.052-.324c-.52-.16-.815-.717-.655-1.238.16-.52.717-.815,1.238-.654l1.052.324.324-1.052c.16-.52.717-.815,1.238-.655.52.16.815.717.655,1.238l-.324,1.052,1.052.324c.52.16.815.717.655,1.238-.16.52-.717.815-1.238.655l-1.052-.324-.324,1.052c-.105.341-.381.585-.705.668,2.017,1.333,4.366,2.206,6.896,2.468l-.045-.142-.038-.076-.024-.063-.002-.072.09-.222-.032-.443.026-.069.011-.077.019-.025-.006-.02.037-.036.025-.048-.002-.03-.02-.033-.037-.027-.044-.014-.053-.129v-.036s.04-.02.04-.02l.053.014.019-.021-.005-.029.016-.073.03-.02h.135l.096.023.058.002.094-.024.214.027.057-.003.108-.037.093-.008h.016s.064.008.064.008l.043.019.126.097-.012.021.011.015.149.015.064-.047.061-.013.123-.051.146-.139.011-.02.015-.028.015-.071-.003-.066h.022l.018-.006.017-.012.017-.014.018-.012.006-.004.015-.041.038-.103.043-.333.047-.211.01-.034-.006-.058-.047-.118v-.103s.023-.136.023-.136l-.008-.133-.058-.344v-.044s-.055-.13-.055-.13l-.045-.209-.011-.147-.019-.177-.004-.037.009-.175v-.223s-.013-.082-.013-.082l-.025-.126v-.115s-.017-.093-.017-.093h0s-.014-.039-.014-.039l-.015-.038-.024-.027-.054-.129-.016-.092-.014-.082-.072-.266-.07-.42-.011-.077-.006-.039-.003-.019.002-.078.007-.036.014-.078Z"/><path class="cls-1" d="M15.322,24.22c-2.53-.262-4.878-1.135-6.896-2.468-.17.043-.354.042-.533-.013-.404-.125-.673-.489-.697-.89-2.745-2.232-4.709-5.387-5.418-8.993l-.016.004-.02.005-.019.005-.02.005-.02.005-.02.004-.02.003-.02.002h-.02s-.02.002-.02.002h-.02s-.018-.002-.018-.002h-.002s-.019-.004-.019-.004l-.017-.01-.016-.013-.018-.01-.018-.007-.019-.007-.019-.005-.019-.005-.02-.005-.02-.004-.02-.002h-.02s-.02,0-.02,0l-.02.002-.02.002-.02.002-.02.004-.019.006-.017.01-.016.012-.014.014-.014.015-.013.015-.012.016-.011.017-.011.017-.011.016-.013.016-.013.016-.013.015-.014.015-.014.014-.016.012-.017.01-.018.009-.019.007-.019.005-.02.003-.02.002h-.02s-.02-.002-.02-.002l-.019-.004-.02-.005-.02-.005-.02-.004-.02-.003-.02-.002h-.02s-.021-.001-.021-.001h-.021s-.018.009-.018.009l-.013.014-.011.017-.005.009-.005.009-.008.019-.008.019-.007.019-.006.02-.005.02-.004.02-.002.02v.02s.004.019.004.019l.006.02.007.02.007.019.005.02.006.019.006.02.006.019.005.02.003.02.002.02v.02s0,.02,0,.02v.02s-.003.02-.003.02l-.004.02-.005.019-.005.02-.005.02-.005.02-.003.017v.003s-.003.02-.003.02l-.003.02-.002.02-.002.02v.021s0,.02,0,.02v.02s.005.019.005.019l.01.018.012.017.012.017.008.018.006.02.003.02v.02s-.005.02-.005.02l-.007.019-.008.019-.008.019-.008.019-.008.019-.009.018-.008.019-.008.018-.008.019-.007.019-.006.019-.005.02-.003.02v.02s0,.02,0,.02l.003.02.004.02.007.019.008.019.008.018.009.018.009.018.008.019.006.019.005.02.003.021v.019s-.005.02-.005.02l-.007.02-.008.019-.01.018-.012.017-.014.015-.015.013-.016.012-.017.01-.018.01-.018.01-.017.011-.016.012-.015.013-.015.014-.017.016-.021.019-.016.013-.015.014-.014.014-.012.015-.008.018-.006.02-.004.02-.005.02-.006.019-.007.019-.006.019-.002.01-.002.009-.003.02v.02s-.004.02-.004.02l-.004.02-.004.02-.005.02-.005.02-.005.019-.005.02-.005.019-.005.02-.005.019-.008.036.011.02.019.013.03.003.04-.005.041-.005.038-.005.011.02.014.018.018.015.019.013.015.017.012.02.01.021.01.021.011.02.013.018.014.018.014.018.013.019.013.019.014.02.012.019.01.02.007.022.005.022.004.023.003.023.003.023.003.023.003.023.002.023v.023s0,.023,0,.023l-.003.023-.005.023-.008.021-.01.02-.012.02-.013.019-.013.019-.013.019-.012.02-.012.02-.012.02-.012.02-.013.019-.013.018-.014.018-.015.018-.015.018-.015.018-.014.018-.014.018-.014.018-.014.018-.013.018-.013.019-.014.018-.016.017-.016.016-.016.016-.015.017-.015.017-.015.017-.016.016-.019.013-.019.014-.015.016-.011.02-.008.022-.005.023-.002.023v.02s.005.027.005.027l.007.021.011.02.014.019.015.018.016.017.018.014.019.013.019.012.02.011.02.011.02.01.021.01.021.01.02.01.021.01.021.01.019.012.016.016.014.018.012.02.011.02.011.02.011.02.009.021.007.022.004.022v.023s0,.023,0,.023l-.002.023-.003.023-.005.022-.006.022-.006.022-.004.022-.003.023-.002.023-.002.023-.002.023-.003.023-.002.023v.023l.002.023.004.023.004.023.004.023.004.023.004.023.004.023.003.022.002.023v.023s-.001.024-.001.024l-.004.024-.008.022-.012.017-.02.012-.024.006h-.022s-.021-.008-.021-.008l-.021-.01-.021-.011-.021-.011-.02-.011-.019-.012-.02-.012-.021-.01-.021-.01-.022-.007-.022-.002-.024.003-.023.008-.018.012-.015.018-.011.022-.005.022v.022s.003.023.003.023l.006.023.007.022.01.02.014.018.016.017.014.018.013.02.012.02.01.02.007.022.002.022v.023s-.003.024-.003.024v.023s.001.023.001.023l.003.023.003.023.002.023v.023s.002.023.002.023l.002.023.003.022.007.022.009.021.01.021.007.022.002.022v.023s-.003.023-.003.023l-.003.023-.003.023-.003.023-.003.023-.003.023-.003.023-.003.023-.003.023-.003.022-.003.023-.003.023-.003.023-.003.023-.002.021-.003.025-.005.022-.007.021-.01.021-.011.02-.013.019-.014.019-.014.018-.016.016-.018.014-.018.014-.018.014-.018.015-.019.014-.019.014-.015.017-.01.019-.007.021-.005.023-.004.024-.003.023-.002.023v.023s0,.005,0,.005v.018s.003.023.003.023l.002.023v.023s.002.023.002.023v.023s.003.023.003.023l.002.023.003.023.004.023.004.023.005.022.005.022.005.022.005.022.007.022.007.022.007.022.007.022.006.022.005.022.005.022.004.022.004.023.003.023v.023s.001.023.001.023v.023s-.002.023-.002.023v.023s-.002.023-.002.023v.023s-.003.023-.003.023l-.005.022-.009.021-.011.021-.011.02-.008.021-.002.022.002.023.005.023.006.023.006.022.008.021.009.021.01.021.011.02.012.02.012.02.009.015.014.025.01.02.01.021.01.02.012.02.015.018.014.018.012.019.009.021.007.022.007.022.008.022.007.021.008.022.008.021.01.02.012.02.013.019.013.019.012.019.012.02.012.02.011.02.009.021.006.022.003.024-.002.023-.008.02-.014.018-.013.013-.004.004-.018.015-.02.013-.02.012-.016.015-.012.019-.009.022-.006.023-.004.022v.023s-.001.023-.001.023v.023s.001.023.001.023v.023s.003.023.003.023l.003.022.004.022.007.022.008.021.007.022.005.022.004.023.003.016v.006s.008.022.008.022l.008.022.009.021.011.02.013.018.017.015.019.014.019.014.018.015.018.015.017.016.015.017.014.019.013.019.012.02.01.02.009.021.008.022.006.023.003.022v.022l-.002.023-.002.012v.011s-.005.023-.005.023l-.003.023-.004.022-.005.023-.005.022-.004.022-.004.023-.004.023-.004.023-.003.023v.009s-.002.014-.002.014v.046s.002.023.002.023v.023s.002.023.002.023v.024s.003.023.003.023l.003.023.004.022.006.022.008.017.015.022.016.017.017.017.016.016.017.016.017.015.018.015.018.014.018.014.019.013.02.012.02.011.02.011.02.012.019.013.018.014.018.014.018.015.017.016.016.016.015.017.014.018.014.018.014.019.013.019.012.02.011.02.01.021.01.021.008.022.004.022-.002.022-.008.022-.009.022-.008.022-.01.022-.008.022v.021s.003.022.003.022l.008.022.01.021.01.021.01.021.01.021.011.02.007.012.005.008.012.019.014.018.015.017.016.017.012.013.003.004.014.018.014.019.013.019.012.019.013.019.012.019.012.019.013.019.014.018.014.018.005.006.01.012.015.018.015.018.006.006.01.011.016.016.015.017.012.019.009.021.008.022.007.021.002.005.005.017.008.022.009.021.011.02.012.019.013.019.013.019.013.019.013.019.013.019.013.018.014.018.014.018.014.018.015.017.004.004.012.013.017.015.018.014.018.014.018.014.017.015.017.016.016.016.017.016.017.016.016.014.019.016.018.014.002.002.016.012.018.014.018.014.018.014.019.014.019.013.019.012.02.012.021.011.02.011.02.011.02.012.018.013.018.015.017.016.017.015.018.014.019.013.02.012.02.011.02.011.02.011.02.01.021.011.02.01.008.004.013.007.021.01.021.01.02.01.021.01.02.01.021.01.026.013.021-.01.021-.01.02-.011.019-.013.018-.015.017-.015.018-.014.02-.013.02-.012.021-.011.021-.008.022-.005.023-.003h.023s.023,0,.023,0l.022.004.022.007.022.008.022.008.021.009.02.012.018.014.016.017.015.019.008.013.004.007.01.021.008.022.006.022v.023s0,.008,0,.008h0s0,.014,0,.014v.023s-.003.023-.003.023l-.002.023v.022s0,.023,0,.023l.002.023.002.023.002.023.002.023.002.023.004.023.004.023.005.023.009.021.013.019.015.018.018.016.019.014.02.011.021.01.021.009.022.008.021.008.022.007.022.007.022.007.022.008.021.01.02.01.021.011.021.01.021.01.021.009.021.009.021.01.02.011.02.012.019.013.019.013.019.014.018.014.018.014.036.029.034.031.031.034.023.039.016.043.017.043.012.044v.046s-.001.046-.001.046l.003.045.011.036.003.009.016.025.008.013.035.029.02.013.02.012.016.01.003.002.02.012.02.011.02.01.021.01.021.01.021.009.021.009.028.01.038.011.023.005.022.007.021.01.02.012.019.013.019.014.034.031.033.032.033.032.043.053.028.037.034.031.034.032.045.052.024.04.002.006.015.036.009.046.023.039.031.034.037.027.02.011.021.011.021.011.021.01.02.011.02.013.019.014.019.013.019.014.018.014.019.013.02.011.021.009.008.003.014.005.022.006.022.005.023.003.023.002h.023s.023.002.023.002h.023s.023-.002.023-.002h.047s.023.002.023.002l.023.003.016.005.007.002.022.008.023.005h.023s.024-.001.024-.001l.021.007.02.012.019.014.018.015.035.031.04.056.021.041.024.039.029.037.036.028.021.008.022.007.023.005.023.006.022.006.022.006.022.006.022.006.022.006.022.006.022.006.044.013.018.005.004.002.022.007.022.008.022.008.021.009.021.009.021.009.022.008.022.009.021.01.02.012.035.029.04.056.007.045v.047s.004.023.004.023l.002.023v.046s-.008.045-.008.045l-.005.045.006.046v.007s.006.04.006.04l.021.039.031.027.004.003.018.015.032.034.034.03.02.01.022.007.023.007.022.007.021.009.021.009.022.009.011.005.01.004.022.006.023.004.023.003h.024s.023,0,.023,0l.022-.005.022-.008.022-.008.023-.006.023-.005h.023s.023,0,.023,0l.023.004.022.005.022.008.021.01.021.009.022.006.023.005.023.004.023.004.023.004.023.003.023.004.022.006.021.009.02.012.02.013.019.013.034.032.019.013.022.009.021.01.035.03.025.038.017.043.011.044.005.046.006.045.014.044.019.042.023.04.028.036.033.032.018.015.02.012.021.005h.023l.024-.004.022-.007.02-.01.02-.013.019-.014.034-.031.03-.035.031-.035.033-.032.033-.032.016-.016.016-.016.032-.034.029-.036.025-.038.027-.037.03-.036.038-.024.023-.005.024-.002.023-.002h.023s.024.001.024.001l.022.005.022.007.021.009.02.012.035.03.031.035.029.036.006.009.019.029.02.041.009.021.009.021.017.043.012.044.008.045.016.043.016.043.005.024.005.021.011.044.019.042.024.039.027.038.033.032.02.012.021.01.021.01.021.009.022.008.022.007.022.006.023.005.023.005.023.006.022.008.043.017.023.003h.023s.023-.002.023-.002h.023s.023.001.023.001h.023s.023.001.023.001h.023s.023-.002.023-.002l.023-.003.023-.005.023-.005.022-.006.022-.007.022-.007.022-.007.022-.008.022-.009.022-.007.022-.007.023-.006.023-.005.023-.003h.023s.023-.002.023-.002h.023s.023,0,.023,0h.023s.024.001.024.001h.023s.023-.003.023-.003l.022-.007.021-.009.021-.01.021-.009.022-.008.022-.008.022-.007.022-.007.022-.005.023-.003h.023s.023.005.023.005l.023.003.022.007.019.013.018.016.024.039.008.046-.009.044-.017.043-.012.044-.013.044-.01.045-.003.046-.002.046.003.045.019.042.024.039.025.039.023.04.036.028.021.01.022.008.023.007.023.003.022-.003.021-.009.022-.01.021-.009.021-.009.021-.009.021-.011.021-.01.022-.003.023.005.022.01.036.028.017.016.016.015.014.014.007.014.014.027.022.04.027.038.03.035.033.032.037.028.02.012.02.011.021.01.022.008.023.006.023.003h.023l.023-.003.023-.005.022-.007.021-.009.021-.011.02-.012.021-.011.02-.011.02-.012.02-.011.021-.009.022-.005.023-.002h.023l.024.002h.024s.023.004.023.004l.023.003.023.004.023.005.022.006.022.007.022.008.022.008.022.009.022.01.022.005.042-.017.021-.012.023-.008.024-.008.023-.004.04.014.017.017.016.019.024.039.021.041.026.039.052.042.023.007.024.005.023.003h.023s.024,0,.024,0h.023s.023.002.023.002l.046.01.022.006.022.006.023.006.023.006h.001s.02.008.02.008l.02.01.018.014.018.016.017.016.018.015.018.015.017.015.018.015.035.03.045.051.021.042.015.043.015.043.02.042.028.037.034.032.036.029.019.014.019.014.019.013.02.013.02.012.02.012.02.011.02.011.021.01.021.009.022.008.023.008.023.005h.008s.014.001.014.001l.022-.004.022-.007.022-.008.022-.007.023-.005.023-.003.023-.003.023-.003.023-.003.023-.002.023-.002.023-.002h.023s.023,0,.023,0l.023.003.023.003.023.005.021.008.02.011.019.014.018.015.034.031.032.034.026.038.017.029.006.011.029.036.045.053.028.037.02.041.027.078.01.02.01.02.021.04.026.036.032.032.033.031.032.031.037.026.02.011.02.01.02.01.02.01.02.01.021.01.007.003.014.006.021.009.021.008.022.006.043.014.022.006.023.003.023.002.023.003.022.004h.01s.013.003.013.003h.023s.023-.005.023-.005l.023-.003h.022s.023-.005.023-.005l.021-.008.02-.01.019-.012.019-.012.037-.025.021-.007.022-.006.022-.006.022-.002h.023s.023-.002.023-.002l.046-.004.021-.008.022-.007.021-.009.021-.009.022-.005.022-.006.021-.008.022-.004.022-.003.022-.006.021-.008.022-.007.022-.004.022-.006.02-.011.02-.012.02-.011.061-.043.037-.013.037.002h.036s.039-.001.039-.001h.039s.039-.003.039-.003l.038-.006.039.004.038.007.034.006-.003-.009.174-.018v-.023h.002v-.002h.002v-.002h.004v-.002h.002v-.005h.004v-.01h.002v-.002h.002v-.008h-.002v-.005h-.002v-.004h-.002v-.002h-.004v-.002h-.004v-.003h-.002v-.008h-.002v-.007h-.002v-.004h-.002v-.002h.002v-.004h-.002v-.002h-.004v-.007h.005v-.002h.002v-.002h.002v-.002h.002v-.002h.002v-.004h.002v-.004h.002v-.002h.002v-.002h.002v-.002h.002v-.002h.002v-.004h-.004v-.004h-.002v-.002h-.004v-.015h.004v.003h.002v.002h.004v.002h.004v-.002h.005v-.002h.002v-.003h.002v-.002h.002v-.002h.002v-.004h.002v-.002h.002v-.002h.002v-.002h.002v-.002h.002v-.002h.002v-.004h.002v-.002h-.002v-.002h.002v-.013h-.002v-.007h-.002v-.002h-.002v-.008h.002v-.007h.002v-.002h.002v-.005h.003v-.007h-.002v-.006h.002v-.011h.004v.002h.002v.008h.002v.008h-.002v.007h.002v.007h.002v.002h.002v.005h.002v.002h.002v.002h.007v.002h.004v.002h.003v.002h.006v.002h.002v-.002h.002v-.002h.002v-.002h.002v-.002h.002v-.002h.002v-.008h.002v-.009h-.002v-.007h-.002v-.004h-.002v-.015h-.002v-.008h-.002v-.004h-.002v-.002h-.002v-.009h-.002v-.002h-.002v-.004h-.002v-.007h-.002v-.004h-.002v-.008h-.002v-.006h-.002v-.011h-.003v-.011h-.002v-.015h-.002v-.008h.004v-.003h.002s-.256-.131-.256-.131l.044-.031.008-.033-.028-.18-.024-.027-.064-.007-.03.015-.053.078-.02.015-.042.008-.051-.005-.148-.076-.014-.1h.005s.123-.029.123-.029l.077.019h.068s.019-.02.019-.02l.008-.078.071-.128.015-.052-.042-.147-.055-.039-.084-.023-.048-.043-.007.031-.026-.009-.034-.067-.039.012-.025-.045.044-.026.016-.032-.02-.025-.06-.033-.058.034-.007-.025.006-.145-.034-.063-.063-.081-.024-.063-.02-.117-.028-.048-.018-.05-.016-.004-.035-.03-.005-.025.02-.055-.009-.287.014-.104.036-.159-.003-.069.041-.08.007-.044-.044-.155.004-.018.046.01.02-.05.044-.108.023-.166-.011-.19-.026-.182v-.124l.034-.19.008-.046.01-.055.061-.094.098-.238.087-.124.096-.186.07-.1.009-.019.018-.04v-.041l.019-.034.097-.077.069-.038.071-.084.018-.045v-.046s-.02-.066-.02-.066Z"/></svg>