<?xml version="1.0" encoding="UTF-8"?><svg id="Capa_1" xmlns="http://www.w3.org/2000/svg" viewBox="0 0 876.898 284.711"><defs><style>.cls-1{fill:#fff;}.cls-2{fill:#007cba;}.cls-3{fill:#a7a7a6;}</style></defs><rect class="cls-3" x="332.105" y="3.071" width="5.27" height="272.726"/><path class="cls-1" d="M521.745,32.526h-6.222c-1.163-4.369-3.584-9.041-7.263-14.022-3.679-4.978-7.205-7.716-10.577-8.213-1.716-.222-3.749-.387-6.098-.499-2.354-.11-5.021-.165-8.008-.165h-19.748v47.295h13.558c4.103,0,7.293-.427,9.565-1.287,2.275-.856,4.215-2.168,5.824-3.941,1.109-1.215,2.12-3.113,3.035-5.684.915-2.571,1.511-5.322,1.788-8.255h6.225v46.302h-6.225c-.164-2.434-.733-5.198-1.703-8.298-.973-3.097-2.01-5.34-3.12-6.724-1.664-2.045-3.756-3.444-6.28-4.187-2.522-.751-5.559-1.123-9.108-1.123h-13.558v40.512c0,1.823.359,3.452,1.077,4.886.718,1.439,1.993,2.599,3.819,3.482.828.387,2.626.856,5.392,1.409,2.766.551,4.868.855,6.308.908v5.893h-51.031v-5.893c1.659-.107,3.871-.289,6.639-.536,2.763-.249,4.561-.569,5.392-.955,1.659-.718,2.863-1.783,3.609-3.195.748-1.409,1.12-3.11,1.12-5.103V20.163c0-1.823-.304-3.442-.913-4.851-.608-1.409-1.881-2.559-3.816-3.447-1.494-.716-3.499-1.354-6.016-1.908-2.517-.551-4.522-.881-6.016-.992V3.071h92.353v29.455Z"/><path class="cls-1" d="M596.763,123.636c-7.021,0-13.75-1.382-20.19-4.15-6.44-2.764-12.149-6.752-17.119-11.954-4.921-5.202-8.847-11.555-11.775-19.057-2.931-7.5-4.392-15.955-4.392-25.367s1.434-17.948,4.31-25.615c2.873-7.667,6.851-14.266,11.939-19.805,5.028-5.48,10.966-9.712,17.82-12.702,6.854-2.988,14.176-4.485,21.971-4.485,5.804,0,11.051.721,15.75,2.158,4.696,1.439,9.176,3.459,13.431,6.058l3.397-5.644h6.639l.748,41.986h-6.804c-.885-4.09-2.212-8.532-3.981-13.316-1.768-4.784-3.839-8.836-6.215-12.156-2.651-3.761-5.804-6.709-9.45-8.837-3.647-2.13-7.817-3.195-12.513-3.195-5.357,0-10.348,1.187-14.959,3.569-4.614,2.382-8.605,5.899-11.974,10.545-3.205,4.487-5.721,10.191-7.542,17.109-1.823,6.921-2.736,14.645-2.736,23.17,0,7.527.953,14.433,2.861,20.716,1.903,6.285,4.627,11.809,8.163,16.568,3.534,4.706,7.722,8.385,12.556,11.046,4.836,2.656,10.238,3.983,16.206,3.983,4.475,0,8.592-.703,12.348-2.115,3.756-1.409,7.018-3.277,9.782-5.599,2.761-2.434,5.19-5.203,7.293-8.3,2.102-3.098,3.813-6.47,5.14-10.121l6.22,2.988c-4.751,11.672-11.054,20.012-18.9,25.015-7.851,5.006-17.19,7.508-28.023,7.508Z"/><path class="cls-1" d="M658.446,145.232c0-2.529.696-4.587,2.085-6.175,1.389-1.594,3.12-2.392,5.193-2.392,1.616,0,3.008.302,4.17.903,1.16.601,2.197,1.377,3.11,2.334.756.748,1.564,1.781,2.424,3.083.858,1.302,1.542,2.382,2.048,3.237,2.524-1.366,5.545-4.923,9.056-10.669,3.514-5.751,6.055-10.797,7.619-15.134-4.801-11.976-9.146-22.689-13.037-32.139-3.893-9.45-7.961-19.23-12.203-29.336-.96-2.322-2.579-4.13-4.854-5.422-2.275-1.285-4.547-2.11-6.822-2.464v-5.003h34.134v5.307c-1.519.05-3.34.369-5.462.948-2.122.581-3.187,1.249-3.187,2.008,0,.301.117.808.344,1.513.224.711.493,1.442.798,2.2,1.915,5.001,4.839,12.209,8.769,21.629,3.931,9.42,6.981,16.96,9.151,22.614,2.275-5.405,4.642-10.996,7.096-16.78,2.454-5.784,5.2-12.615,8.238-20.494.354-.958.86-2.287,1.519-3.978.656-1.689.985-3.143.985-4.358,0-1.314-1.147-2.536-3.449-3.674-2.302-1.138-4.487-1.828-6.56-2.082v-4.854h27.767v4.701c-1.514.252-3.514,1.125-5.991,2.616-2.477,1.489-4.32,3.602-5.532,6.333-6.018,13.949-11.366,26.664-16.039,38.137-4.674,11.475-8.226,19.915-10.655,25.327-3.182,7.073-6.028,12.598-8.527,16.568-2.502,3.966-4.941,7.091-7.318,9.365-2.325,2.12-4.435,3.549-6.33,4.282-1.898.728-3.856,1.097-5.879,1.097-3.941,0-7.038-.938-9.285-2.803-2.253-1.871-3.377-4.018-3.377-6.447Z"/><path class="cls-1" d="M850.638,35.021h-5.726c-.499-1.993-1.396-4.36-2.701-7.095-1.302-2.739-2.756-5.325-4.367-7.762-1.664-2.541-3.479-4.766-5.447-6.679-1.968-1.908-3.866-3-5.696-3.275-1.719-.222-3.881-.389-6.488-.501-2.603-.107-5.018-.165-7.235-.165h-4.823v94.182c0,1.823.387,3.497,1.162,5.018.773,1.524,2.13,2.696,4.065,3.527.996.386,3.086.91,6.265,1.576,3.183.663,5.656,1.025,7.427,1.077v5.893h-55.598v-5.893c1.552-.107,3.916-.329,7.098-.664,3.18-.329,5.377-.743,6.594-1.244,1.826-.716,3.167-1.754,4.026-3.108.858-1.357,1.285-3.168,1.285-5.437V9.544h-4.809c-1.719,0-3.849.042-6.39.125-2.547.082-4.981.264-7.303.541-1.826.222-3.721,1.312-5.682,3.275-1.968,1.965-3.781,4.193-5.44,6.679-1.659,2.494-3.125,5.135-4.394,7.926-1.277,2.796-2.158,5.103-2.659,6.931h-5.806V3.071h102.641v31.949Z"/><path class="cls-1" d="M431.312,177.79h21.018v3.726h-16.568v12.289h13.733v3.778h-13.733v17.461h-4.449v-37.254Z"/><path class="cls-1" d="M478.692,214.984c-.833.224-2.891.501-4.28.501-2.112,0-3.17-.94-3.337-3.28-1.389,1.616-4.17,3.614-7.784,3.614-4.06,0-7.23-2.167-7.23-6.283,0-7.006,9.455-8.45,14.959-9.397v-3.666c0-2.893-.723-4.838-4.951-4.838-2.835,0-6.003,1.052-8.338,2.222l-.669-3.225c3.115-1.776,7.45-2.724,10.398-2.724,5.392,0,7.784,2.781,7.784,7.841v15.069c0,1.669.945,1.833,2.167,1.833h1.28v2.332ZM463.568,212.263c2.671,0,5.671-1.945,7.452-4.06v-5.001c-6.063,1.11-10.678,2.669-10.678,6.223,0,1.723,1.389,2.838,3.225,2.838Z"/><path class="cls-1" d="M482.257,202.419c0-8.116,4.058-14.51,13.288-14.51,2.28,0,5.283.613,7.452,2l-.89,3.337c-1.669-.833-4.225-1.611-6.504-1.611-6.118,0-9.009,4.449-9.009,10.62,0,6.225,3.115,9.787,9.34,9.787,2.671,0,5.283-.836,6.951-1.781l.724,3.337c-1.779,1.165-4.781,2.222-8.228,2.222-7.063,0-13.124-4.055-13.124-13.401Z"/><path class="cls-1" d="M531.193,215.044h-4.225v-2.838c-2.726,2.392-5.896,3.614-9.119,3.614-5.227,0-8.343-3.225-8.343-9.62v-17.513h4.225v17.683c0,4.28,2.003,5.724,5.06,5.724,3.115,0,6.173-1.721,8.176-3.943v-19.464h4.225v26.358Z"/><path class="cls-1" d="M539.428,175.672l4.228-.998v40.369h-4.228v-39.372Z"/><path class="cls-1" d="M548.996,188.686h4.504l1.444-6.948h2.781v6.948h8.507v3.449h-8.507v16.067c0,2.556.942,4.003,3.334,4.003,1.502,0,3.783-.723,4.839-1.222l.611,3.28c-1.447.893-4.115,1.556-6.283,1.556-4.726,0-6.727-2.444-6.727-7.617v-16.067h-4.504v-3.449Z"/><path class="cls-1" d="M593.261,214.984c-.836.224-2.891.501-4.282.501-2.112,0-3.17-.94-3.334-3.28-1.392,1.616-4.173,3.614-7.786,3.614-4.058,0-7.23-2.167-7.23-6.283,0-7.006,9.457-8.45,14.957-9.397v-3.666c0-2.893-.721-4.838-4.949-4.838-2.833,0-6.003,1.052-8.338,2.222l-.669-3.225c3.115-1.776,7.45-2.724,10.401-2.724,5.392,0,7.781,2.781,7.781,7.841v15.069c0,1.669.945,1.833,2.167,1.833h1.282v2.332ZM578.137,212.263c2.671,0,5.671-1.945,7.447-4.06v-5.001c-6.058,1.11-10.672,2.669-10.672,6.223,0,1.723,1.387,2.838,3.225,2.838Z"/><path class="cls-1" d="M596.825,202.419c0-9.62,5.34-14.51,12.844-14.51,2.444,0,4.724.666,6.395,1.447v-13.847l4.225-.833v40.369h-4.225v-2.781c-1.946,1.836-4.726,3.557-8.453,3.557-6.784,0-10.787-5.893-10.787-13.401ZM616.064,208.15v-14.792c-1.394-.836-3.616-1.723-6.342-1.723-5.17,0-8.562,3.392-8.562,10.62,0,6.061,2.392,9.727,7.228,9.727,3.063,0,5.784-1.773,7.677-3.831Z"/><path class="cls-1" d="M639.818,202.419c0-9.62,5.335-14.51,12.842-14.51,2.447,0,4.724.666,6.393,1.447v-13.847l4.227-.833v40.369h-4.227v-2.781c-1.946,1.836-4.724,3.557-8.45,3.557-6.784,0-10.784-5.893-10.784-13.401ZM659.052,208.15v-14.792c-1.387-.836-3.614-1.723-6.337-1.723-5.171,0-8.562,3.392-8.562,10.62,0,6.061,2.392,9.727,7.228,9.727,3.058,0,5.784-1.773,7.672-3.831Z"/><path class="cls-1" d="M692.198,213.151c-1.945,1.447-5.394,2.668-9.23,2.668-7.283,0-12.954-4.559-12.954-13.453,0-9.173,5.559-14.458,12.623-14.458,6.619,0,9.897,3.334,9.897,9.951,0,1.115-.11,2.504-.222,3.392h-18.014v1.115c0,6.949,4.115,9.727,9.395,9.727,2.781,0,5.729-1,7.784-2.28l.723,3.337ZM688.028,198.029c.058-.334.112-.833.112-1.17,0-2.891-1.112-5.559-5.504-5.559-4.061,0-6.729,2.504-7.786,6.729h13.178Z"/><path class="cls-1" d="M711.002,196.915c0-12.508,7.562-19.908,18.571-19.908,3.726,0,7.732.948,10.231,2.17l-.776,4.225c-2.337-1.274-5.784-2.332-9.176-2.332-9.061,0-14.121,6.006-14.121,15.845,0,9.23,5.784,14.792,14.623,14.792,3.614,0,7.282-1.112,9.34-2.392l.611,4.06c-2.778,1.499-7.285,2.444-10.787,2.444-11.398,0-18.516-7.283-18.516-18.905Z"/><path class="cls-1" d="M746.208,179.289c0-1.664,1.387-3.003,3.115-3.003,1.666,0,3.113,1.339,3.113,3.003s-1.447,3.003-3.113,3.003c-1.728,0-3.115-1.335-3.115-3.003ZM747.208,188.744l4.225-.835v27.136h-4.225v-26.301Z"/><path class="cls-1" d="M780.347,213.151c-1.946,1.447-5.392,2.668-9.226,2.668-7.285,0-12.957-4.559-12.957-13.453,0-9.173,5.559-14.458,12.62-14.458,6.619,0,9.899,3.334,9.899,9.951,0,1.115-.112,2.504-.225,3.392h-18.012v1.115c0,6.949,4.112,9.727,9.395,9.727,2.781,0,5.726-1,7.782-2.28l.723,3.337ZM776.179,198.029c.055-.334.112-.833.112-1.17,0-2.891-1.112-5.559-5.507-5.559-4.058,0-6.729,2.504-7.784,6.729h13.178Z"/><path class="cls-1" d="M787.418,188.744l4.225-.835v3.726c2.334-2.115,5.617-3.726,9.118-3.726,5.726,0,8.729,3.557,8.729,9.116v18.02h-4.225v-17.409c0-3.444-1.893-5.836-5.617-5.836-3.113,0-6.061,1.836-8.006,3.781v19.464h-4.225v-26.301Z"/><path class="cls-1" d="M816.06,202.419c0-8.116,4.058-14.51,13.288-14.51,2.282,0,5.283.613,7.45,2l-.89,3.337c-1.666-.833-4.225-1.611-6.504-1.611-6.116,0-9.009,4.449-9.009,10.62,0,6.225,3.115,9.787,9.343,9.787,2.669,0,5.283-.836,6.953-1.781l.721,3.337c-1.781,1.165-4.784,2.222-8.23,2.222-7.061,0-13.121-4.055-13.121-13.401Z"/><path class="cls-1" d="M842.866,179.289c0-1.664,1.387-3.003,3.115-3.003,1.666,0,3.112,1.339,3.112,3.003s-1.447,3.003-3.112,3.003c-1.729,0-3.115-1.335-3.115-3.003ZM843.866,188.744l4.225-.835v27.136h-4.225v-26.301Z"/><path class="cls-1" d="M876.898,214.984c-.836.224-2.893.501-4.282.501-2.112,0-3.167-.94-3.337-3.28-1.389,1.616-4.168,3.614-7.781,3.614-4.063,0-7.231-2.167-7.231-6.283,0-7.006,9.45-8.45,14.957-9.397v-3.666c0-2.893-.723-4.838-4.949-4.838-2.838,0-6.006,1.052-8.34,2.222l-.669-3.225c3.115-1.776,7.452-2.724,10.396-2.724,5.397,0,7.789,2.781,7.789,7.841v15.069c0,1.669.945,1.833,2.167,1.833h1.28v2.332ZM861.772,212.263c2.668,0,5.671-1.945,7.452-4.06v-5.001c-6.061,1.11-10.678,2.669-10.678,6.223,0,1.723,1.392,2.838,3.225,2.838Z"/><path class="cls-1" d="M442.044,274.979c-1.556,4.284-4.392,9.732-10.732,9.732-1.614,0-3.115-.334-4.058-.723l.721-3.28c.89.277,2.447.446,3.337.446,3.726,0,5.894-3.836,7.896-9.789l-10.954-26.078h4.781l8.286,20.628,6.894-20.628h4.672l-10.842,29.692Z"/><path class="cls-1" d="M482.311,238.117h-12.623v-3.726h29.692v3.726h-12.623v33.53h-4.447v-33.53Z"/><path class="cls-1" d="M521.683,269.754c-1.945,1.447-5.394,2.669-9.23,2.669-7.283,0-12.954-4.562-12.954-13.453,0-9.176,5.559-14.458,12.62-14.458,6.617,0,9.897,3.332,9.897,9.952,0,1.115-.11,2.501-.222,3.389h-18.014v1.118c0,6.946,4.115,9.727,9.397,9.727,2.778,0,5.726-1,7.784-2.28l.723,3.337ZM517.513,254.633c.055-.337.11-.836.11-1.17,0-2.891-1.11-5.559-5.504-5.559-4.058,0-6.727,2.501-7.784,6.729h13.179Z"/><path class="cls-1" d="M527.25,259.022c0-8.115,4.058-14.51,13.288-14.51,2.28,0,5.283.611,7.452,1.998l-.89,3.34c-1.666-.835-4.225-1.611-6.507-1.611-6.116,0-9.006,4.449-9.006,10.62,0,6.225,3.113,9.784,9.34,9.784,2.669,0,5.283-.833,6.951-1.778l.723,3.337c-1.781,1.165-4.784,2.222-8.23,2.222-7.061,0-13.121-4.056-13.121-13.401Z"/><path class="cls-1" d="M555.054,245.347l4.228-.836v3.726c2.337-2.115,5.617-3.726,9.118-3.726,5.729,0,8.729,3.557,8.729,9.116v18.02h-4.225v-17.409c0-3.444-1.888-5.836-5.615-5.836-3.115,0-6.063,1.833-8.008,3.779v19.466h-4.228v-26.3Z"/><path class="cls-1" d="M583.698,258.471c0-7.953,4.285-13.959,12.565-13.959s12.567,6.006,12.567,13.959c0,8.503-4.948,13.952-12.567,13.952-7.56,0-12.565-5.45-12.565-13.952ZM604.384,258.471c0-6.454-3.173-10.515-8.121-10.515-5.17,0-8.116,4.061-8.116,10.515,0,6.111,2.779,10.508,8.116,10.508,5.395,0,8.121-4.397,8.121-10.508Z"/><path class="cls-1" d="M615.563,232.275l4.23-1v40.372h-4.23v-39.372Z"/><path class="cls-1" d="M626.524,258.471c0-7.953,4.277-13.959,12.565-13.959s12.565,6.006,12.565,13.959c0,8.503-4.948,13.952-12.565,13.952-7.565,0-12.565-5.45-12.565-13.952ZM647.205,258.471c0-6.454-3.167-10.515-8.115-10.515-5.173,0-8.121,4.061-8.121,10.515,0,6.111,2.781,10.508,8.121,10.508,5.392,0,8.115-4.397,8.115-10.508Z"/><path class="cls-1" d="M676.182,272.81v-3.943c-2.337,2.17-4.893,3.557-8.62,3.557-6.781,0-10.672-6.061-10.672-13.341,0-9.622,5.39-14.571,12.842-14.571,3.836,0,7.617,1.057,10.62,2.611v26.133c0,7.841-4.614,11.455-13.066,11.455-2.891,0-6.729-.664-9.286-1.611l.778-3.726c2.224.888,6.228,1.611,8.731,1.611,5.113,0,8.672-1.556,8.672-8.175ZM676.127,264.806v-15.012c-1.499-.893-3.891-1.614-6.228-1.614-6.003,0-8.674,4.447-8.674,10.677,0,5.949,2.392,9.839,7.115,9.839,3.225,0,6.562-2.387,7.787-3.891Z"/><path class="cls-1" d="M688.587,245.347l4.227-.836v27.136h-4.227v-26.3ZM688.979,239.616l5.06-9.397,4.836,1.117-8.009,9.286-1.888-1.005Z"/><path class="cls-1" d="M721.619,271.587c-.833.224-2.891.501-4.28.501-2.115,0-3.173-.942-3.337-3.279-1.392,1.614-4.173,3.614-7.786,3.614-4.058,0-7.228-2.17-7.228-6.283,0-7.006,9.455-8.453,14.957-9.398v-3.669c0-2.891-.723-4.836-4.949-4.836-2.833,0-6.003,1.053-8.34,2.222l-.669-3.228c3.115-1.776,7.45-2.721,10.401-2.721,5.392,0,7.781,2.781,7.781,7.839v15.069c0,1.671.945,1.836,2.17,1.836h1.28v2.332ZM706.495,268.866c2.671,0,5.671-1.946,7.45-4.06v-5.003c-6.061,1.112-10.675,2.668-10.675,6.225,0,1.721,1.389,2.838,3.225,2.838Z"/><path class="cls-2" d="M34.441,34.607l1.529,133.828c16.977-5.056,33.546-12.63,49.024-22.297V35.051c0-5.357,1.339-9.842,4.035-13.426,2.686-3.569,6.103-5.799,10.273-6.712l13.882-2.679c4.17-.289,6.255-1.938,6.255-4.918,0-2.686-2.37-4.031-7.12-4.031H7.126C2.379,3.286,0,4.63,0,7.316c0,2.98,2.08,4.629,6.27,4.918l13.855,2.679c4.477.913,7.976,3.065,10.532,6.504,2.501,3.422,3.783,7.809,3.783,13.189Z"/><path class="cls-2" d="M201.315,124.159v68.822c0,20.579-5.667,35.938-16.99,46.088-11.338,10.131-24.609,15.206-39.825,15.206-16.701,0-30.805-5.883-42.275-17.675-11.483-11.775-17.231-27.811-17.231-48.089v-13.413c-16.431,3.394-33.693,5.235-48.942.633l.182,15.912c0,28.627,9.18,50.338,27.507,65.093,18.357,14.762,44.666,22.152,78.97,22.152,30.714,0,54.194-7.39,70.475-22.152,16.244-14.755,24.385-36.466,24.385-65.093l2.262-113.488c-10.744,17.167-23.704,32.86-38.519,46.003Z"/><path class="cls-2" d="M188.413,127.983c-21.748,17.409-48.063,27.46-74.688,34.706-21.173,5.769-48.206,13.767-71.007,9.218C114.81,148.19,177.863,80.426,182.796,3.174c27.348.007,54.693.022,82.051.027-10.478,48.044-38.027,94.027-76.434,124.782Z"/></svg>