<?xml version="1.0" encoding="UTF-8"?><svg id="_99_STORY" xmlns="http://www.w3.org/2000/svg" viewBox="0 0 108 78"><defs><style>.cls-1,.cls-2{fill:none;}.cls-1,.cls-2,.cls-3{stroke-linecap:round;stroke-linejoin:round;stroke-width:8px;}.cls-1,.cls-3{stroke:#0b1020;}.cls-2{stroke:#5a34d6;}.cls-4{fill:#7d51fb;}.cls-3{fill:#8b6cff;}</style></defs><path class="cls-3" d="M80.6,4H27.4c-10.25.002-18.839,7.754-19.89,17.95-.03.26-.05.505-.085.76-.405,3.37-3.425,28.57-3.425,36.29,0,8.284,6.716,15,15,15,5,0,7.5-2.5,10-5l7.07-7.07c1.875-1.875,4.418-2.929,7.07-2.93h21.72c2.652,0,5.195,1.055,7.07,2.93l7.07,7.07c2.5,2.5,5,5,10,5,8.284,0,15-6.716,15-15,0-7.725-3.02-32.92-3.425-36.29-.035-.25-.055-.5-.085-.755-1.048-10.198-9.638-17.952-19.89-17.955Z"/><path class="cls-4" d="M39.109,4c5.509,19.686,29.976,52.17,62.538,63.043,1.483-2.326,2.353-5.081,2.353-8.043,0-7.725-3.02-32.92-3.425-36.29-.035-.25-.055-.5-.085-.755-1.048-10.198-9.638-17.952-19.89-17.955h-41.491Z"/><path class="cls-1" d="M80.6,4H27.4c-10.25.002-18.839,7.754-19.89,17.95-.03.26-.05.505-.085.76-.405,3.37-3.425,28.57-3.425,36.29,0,8.284,6.716,15,15,15,5,0,7.5-2.5,10-5l7.07-7.07c1.875-1.875,4.418-2.929,7.07-2.93h21.72c2.652,0,5.195,1.055,7.07,2.93l7.07,7.07c2.5,2.5,5,5,10,5,8.284,0,15-6.716,15-15,0-7.725-3.02-32.92-3.425-36.29-.035-.25-.055-.5-.085-.755-1.048-10.198-9.638-17.952-19.89-17.955Z"/><line class="cls-2" x1="24" y1="34" x2="44" y2="34"/><line class="cls-2" x1="34" y1="24" x2="34" y2="44"/><line class="cls-2" x1="67.492" y1="34.174" x2="67.534" y2="34.201"/><line class="cls-2" x1="85.516" y1="33.799" x2="85.558" y2="33.826"/><line class="cls-2" x1="76.351" y1="24.967" x2="76.324" y2="25.009"/><line class="cls-2" x1="76.726" y1="42.991" x2="76.699" y2="43.033"/></svg>